<svg width="52" height="89" viewBox="0 0 52 89" fill="none" xmlns="http://www.w3.org/2000/svg">
<path d="M13.6746 36.92C13.2488 37.1044 12.8284 37.299 12.4127 37.5015C9.8985 38.6032 7.54478 40.0035 5.39573 41.6564C2.04318 37.2961 0.0357198 31.8476 3.57878e-06 25.9306L9.40116 25.9306C9.44133 30.1546 11.0516 34.0016 13.6746 36.92ZM25.9301 51.8622C16.8394 51.9488 9.48619 59.3015 9.39969 68.3921L1.72273e-06 68.3921C0.0866025 54.1099 11.648 42.5493 25.9301 42.4625L25.9301 51.8622ZM25.9301 9.40115C16.8395 9.48766 9.48771 16.8391 9.40116 25.9297L0.000492576 25.9297C0.0875826 11.6476 11.648 0.086867 25.9301 -1.13346e-06L25.9301 9.40115ZM10.2966 89C4.07901 84.2644 0.0513741 76.8006 0.00049072 68.3931L9.40018 68.3931C9.45126 73.7603 12.0361 78.5214 16.0153 81.5392L10.2966 89ZM51.8603 25.9311C51.7735 40.2133 40.2128 51.7742 25.9306 51.8608L25.9306 42.4596C35.0214 42.3732 42.3732 35.0219 42.4596 25.9311L51.8603 25.9311ZM42.4596 25.9297C42.3731 16.8391 35.0217 9.48717 25.9311 9.40071L25.9311 -1.13342e-06C40.2132 0.0868585 51.7738 11.6476 51.8608 25.9297L42.4596 25.9297ZM51.8608 68.3931C51.8102 76.7087 47.8699 84.1015 41.7677 88.8444L36.049 81.3831C39.913 78.3585 42.4108 73.6688 42.461 68.3931L51.8608 68.3931ZM42.4591 68.3916C42.4187 64.1467 40.7946 60.2815 38.1489 57.3572C41.1547 56.1878 43.9517 54.6002 46.4674 52.6646C49.8196 57.025 51.8243 62.4749 51.8603 68.3916L42.4591 68.3916Z" fill="white"/>
</svg>
