<svg width="315" height="313" viewBox="0 0 315 313" fill="none" xmlns="http://www.w3.org/2000/svg">
<path fill-rule="evenodd" clip-rule="evenodd" d="M156.17 2.53121C175.528 7.84521 189.995 15.8652 203.878 28.9776C219.537 43.7675 230.577 62.3537 236.032 83.1089C240.611 100.528 240.339 131.402 235.495 144.279C234.624 146.594 234.476 146.444 233.377 142.13C225.259 110.259 201.976 87.7294 170.589 81.3757L161.923 79.6208L166.512 75.8597C172.295 71.1217 178.65 68.2921 186.152 67.1154C196.786 65.4481 205.747 68.2303 207.1 73.6185C208 77.2096 208.976 76.8252 211.141 72.0254C215.75 61.8034 212.061 52.5995 201.389 47.7018C196.554 45.4812 194.577 43.8438 192.288 40.163C186.497 30.8458 173.684 26.5498 146.003 24.6415C118.035 22.7145 103.077 18.4567 93.2572 9.62788L88.2059 5.08568L89.0055 8.43256C91.2437 17.7962 96.3155 25.2401 103.653 29.9338L109.102 33.4178L105.5 33.6805C89.8938 34.8223 70.4668 40.094 57.0741 46.8228C48.7316 51.0147 34.7825 60.4154 35.6378 61.2707C35.8593 61.4922 40.1934 60.3412 45.2694 58.7121C56.0705 55.2446 68.6625 53.2332 76.6526 53.6969L82.32 54.0266L75.1069 56.4904C47.2664 66.0004 24.2926 85.9498 11.3811 111.824C3.44258 127.736 -0.117603 144.47 0.00295868 165.315C0.12249 186.122 5.24792 207.532 14.5374 226.027C19.9153 236.735 32.295 254.682 36.9939 258.58C38.5725 259.891 38.5261 259.519 36.6579 255.856C30.0311 242.867 26.3061 228.142 25.4673 211.624C23.0272 163.576 49.8672 120.297 94.2515 100.711C99.3873 98.445 103.754 96.7571 103.958 96.9601C104.161 97.1631 98.6124 102.046 91.628 107.811C69.1901 126.329 57.2143 142.728 48.8842 166.345C38.9198 194.597 41.296 226.93 55.3172 253.88C76.0199 293.675 115.717 314.967 165.271 312.857C185.83 311.982 202.159 307.9 221.503 298.803C231.916 293.906 246.122 285.045 252.859 279.246L256.465 276.141L249.767 278.815C240.781 282.404 228.065 286.038 219.884 287.357C211.395 288.726 191.427 288.753 183.13 287.406C153.585 282.61 126.566 266.48 108.156 242.642C99.7768 231.792 96.0517 225.516 91.1406 213.974C84.8013 199.078 84.7457 196.953 90.9273 205.802C104.34 225.001 114.264 236.087 126.616 245.664C146.599 261.157 163.891 268.072 189.766 270.912C210.295 273.166 231.83 269.041 251.936 259.004C287.132 241.435 309.635 207.249 313.608 165.313C315.854 141.612 310.212 111.396 299.613 90.3478C295.953 83.079 288.065 69.9985 287.341 69.9985C287.139 69.9985 287.874 72.6128 288.973 75.8082C295.005 93.3402 295.712 119.804 290.666 139.161C281.176 175.555 252.378 206.95 215.247 221.379C196.434 228.69 196.179 227.891 213.604 216.219C222.335 210.37 233.359 201.911 238.104 197.42C281.389 156.448 289.656 95.0074 258.271 47.5462C249.026 33.5682 228.921 17.2789 212.448 10.4203C194.495 2.94648 178.845 -0.119094 159.272 0.00352857L147.238 0.0797809L156.17 2.53121ZM177.656 43.9448C181.613 45.4843 184.849 47.032 184.849 47.3854C184.849 48.2644 179.973 50.4201 177.984 50.4201C176.376 50.4201 169.393 43.5553 169.393 41.9756C169.393 40.7793 169.724 40.8586 177.656 43.9448ZM169.908 93.1825C173.875 94.0131 181.062 96.6201 185.88 98.9767C192.946 102.435 196.335 104.975 203.424 112.133C217.29 126.135 223.397 140.727 223.314 159.647C223.231 178.24 216.65 193.902 203.381 207.084C189.973 220.403 174.556 226.884 155.997 227.001C129.986 227.166 106.168 212.415 94.6575 189.015C89.7001 178.936 87.9875 171.262 87.9875 159.132C87.9875 139.681 93.6178 126.162 107.539 112.186C124.798 94.859 146.425 88.2694 169.908 93.1825Z" fill="#032258"/>
<path d="M231.969 156.322C231.969 197.833 198.318 231.485 156.807 231.485C115.296 231.485 81.6445 197.833 81.6445 156.322C81.6445 114.811 115.296 81.1602 156.807 81.1602C198.318 81.1602 231.969 114.811 231.969 156.322ZM110.877 156.322C110.877 181.689 131.44 202.252 156.807 202.252C182.173 202.252 202.737 181.689 202.737 156.322C202.737 130.956 182.173 110.393 156.807 110.393C131.44 110.393 110.877 130.956 110.877 156.322Z" fill="#032258"/>
</svg>
