<svg width="460" height="459" viewBox="0 0 460 459" fill="none" xmlns="http://www.w3.org/2000/svg">
<path fill-rule="evenodd" clip-rule="evenodd" d="M228.714 3.707C257.064 11.4894 278.251 23.2348 298.584 42.4382C321.516 64.0983 337.684 91.318 345.674 121.714C352.379 147.224 351.98 192.44 344.886 211.299C343.611 214.689 343.395 214.47 341.785 208.151C329.896 161.476 295.798 128.481 249.83 119.176L237.139 116.606L243.86 111.098C252.33 104.159 261.636 100.015 272.622 98.2916C288.196 95.8499 301.32 99.9245 303.301 107.816C304.62 113.075 306.049 112.512 309.22 105.482C315.97 90.5122 310.567 77.0329 294.938 69.8601C287.857 66.608 284.961 64.21 281.609 58.8195C273.128 45.1742 254.364 38.8827 213.823 36.0878C172.865 33.2658 150.958 27.0302 136.577 14.1002L129.179 7.44807L130.35 12.3496C133.628 26.0629 141.056 36.9646 151.802 43.8386L159.782 48.9409L154.506 49.3257C131.651 50.9978 103.2 58.7184 83.5861 68.5728C71.3683 74.7119 50.9396 88.4794 52.1922 89.732C52.5166 90.0564 58.8639 88.3708 66.2978 85.9849C82.1162 80.9067 100.557 77.961 112.259 78.6401L120.559 79.123L109.995 82.7312C69.2224 96.6588 35.5769 125.875 16.6679 163.769C5.04172 187.072 -0.172232 211.579 0.00433303 242.106C0.179389 272.58 7.68567 303.934 21.2902 331.021C29.1663 346.702 47.2966 372.986 54.1781 378.695C56.4901 380.615 56.4222 380.07 53.6862 374.705C43.9811 355.683 38.5257 334.118 37.2973 309.927C33.7238 239.56 73.0314 176.176 138.033 147.493C145.554 144.174 151.95 141.702 152.249 142C152.546 142.297 144.42 149.449 134.191 157.891C101.33 185.011 83.7913 209.028 71.5917 243.615C56.9987 284.99 60.4786 332.343 81.013 371.812C111.332 430.092 169.469 461.275 242.042 458.184C272.152 456.903 296.065 450.925 324.395 437.602C339.645 430.43 360.449 417.454 370.316 408.96L375.598 404.413L365.788 408.329C352.628 413.586 334.005 418.908 322.024 420.84C309.591 422.844 280.348 422.883 268.198 420.911C224.927 413.888 185.359 390.264 158.397 355.354C146.125 339.463 140.669 330.273 133.477 313.369C124.193 291.553 124.112 288.442 133.165 301.4C152.807 329.518 167.341 345.753 185.431 359.779C214.697 382.469 240.021 392.596 277.915 396.755C307.981 400.057 339.52 394.016 368.965 379.315C420.51 353.585 453.466 303.519 459.285 242.103C462.573 207.394 454.311 163.141 438.788 132.316C433.428 121.671 421.876 102.514 420.816 102.514C420.521 102.514 421.597 106.343 423.205 111.022C432.04 136.698 433.075 175.455 425.685 203.804C411.788 257.104 369.613 303.082 315.234 324.214C287.68 334.921 287.308 333.751 312.826 316.656C325.613 308.09 341.759 295.702 348.707 289.125C412.098 229.12 424.206 139.14 378.242 69.6322C364.703 49.1612 335.259 25.3053 311.133 15.2607C284.842 4.31517 261.921 -0.174416 233.256 0.00516765L215.633 0.11684L228.714 3.707ZM260.18 64.3579C265.975 66.6125 270.715 68.8792 270.715 69.3968C270.715 70.6841 263.574 73.8411 260.661 73.8411C258.306 73.8411 248.078 63.7874 248.078 61.474C248.078 59.7219 248.564 59.8381 260.18 64.3579ZM248.833 136.467C254.643 137.684 265.169 141.502 272.224 144.953C282.573 150.018 287.535 153.738 297.918 164.221C318.225 184.727 327.169 206.097 327.047 233.806C326.926 261.035 317.287 283.973 297.855 303.278C278.218 322.784 255.641 332.275 228.46 332.447C190.367 332.689 155.484 311.086 138.628 276.816C131.367 262.055 128.859 250.817 128.859 233.052C128.859 204.566 137.105 184.766 157.493 164.298C182.769 138.923 214.442 129.272 248.833 136.467Z" fill="#455DFF"/>
</svg>
