<svg width="344" height="325" viewBox="0 0 344 325" fill="none" xmlns="http://www.w3.org/2000/svg">
<path fill-rule="evenodd" clip-rule="evenodd" d="M177.911 0.53698C166.634 1.54691 155.096 5.01521 143.373 10.9189C131.32 16.9882 132.27 18.0537 149.888 18.2228C165.143 18.369 174.183 20.0119 187.035 24.9721C216.242 36.2456 237.22 58.3879 245.744 86.9389C249.125 98.2631 248.826 124.075 245.183 135.261C239.427 152.939 226.471 172.367 213.733 182.421C205.959 188.556 205.683 190.814 212.823 189.835C224.322 188.259 241.292 181.014 252.874 172.738C270.51 160.133 282.348 143.364 289.516 120.829C292.199 112.395 292.169 82.4075 289.468 73.0464C284.475 55.7435 278.095 44.4833 266.308 32.1721C243.336 8.17787 213.162 -2.62085 177.911 0.53698ZM100.056 32.0718C70.9479 34.5906 47.2388 45.7143 27.271 66.2197C17.5861 76.1655 18.9294 76.3625 37.8414 67.7684C55.8135 59.602 70.6689 56.1325 90.3915 55.4947L106.7 54.968L93.4116 57.8636C77.6937 61.2897 69.822 63.9546 58.3782 69.7267C36.6744 80.6728 16.7912 101.166 7.50857 122.153C3.16081 131.986 -0.375142 146.415 0.0319696 152.67L0.391963 158.214L2.80806 154.292C4.13691 152.136 7.12682 147.007 9.45231 142.893C16.8395 129.828 39.4421 108.128 52.0239 102.02C54.539 100.8 54.5161 100.895 51.734 103.243C29.6702 121.855 17.0993 142.896 12.3987 169.086C6.68106 200.936 16.3829 230.849 40.1331 254.598C47.4792 261.945 60.5902 271.404 67.6971 274.486C72.3916 276.521 73.1091 274.306 69.3521 269.379C59.0293 255.847 51.4332 232.384 51.3522 213.784C51.2193 183.74 66.2607 154.679 90.4482 138.245C105.682 127.894 118.806 123.782 139.362 122.917C157.599 122.149 169.231 123.978 183.474 129.85C198.289 135.96 204.153 141.877 205.715 152.298C206.689 158.789 208.467 159.05 214.005 153.512C225.609 141.909 227.055 125.59 217.817 110.496C215.66 106.972 215.318 104.927 215.764 98.2136C216.214 91.4147 215.812 89.1001 213.185 83.3595C206.375 68.486 182.934 50.2626 156.23 39.0821C150.822 36.817 135.628 33.234 128.643 32.5756C113.391 31.1368 111.28 31.0994 100.056 32.0718ZM284.587 41.131C284.201 41.5175 285.239 43.8285 286.894 46.2652C291.844 53.5606 299.233 69.5358 301.234 77.2745C311.047 115.208 300.029 149.922 270.351 174.572C260.66 182.621 255.083 186.092 245.625 189.958C237.533 193.266 233.195 194.558 220.627 197.4C213.037 199.118 186.322 199.034 178.675 197.269C167.992 194.803 169.03 197.659 181.965 206.306C191.689 212.808 196.147 215.109 205.051 218.22C225.648 225.419 252.999 225.843 275.068 219.303C281.79 217.311 297.166 209.443 303.612 204.697C318.36 193.837 331.556 177.225 337.179 162.442C342.907 147.379 343.477 144.209 343.477 127.408C343.477 110.636 342.922 107.535 337.203 92.3751C329.815 72.7963 313.718 55.3074 291.702 42.9406C287.001 40.301 285.739 39.9797 284.587 41.131ZM202.438 98.0396C206.06 101.619 205.877 102.108 201.23 101.274C196.47 100.417 193.075 96.8207 193.075 92.6348V89.5374L196.398 92.4452C198.224 94.0446 200.942 96.5622 202.438 98.0396ZM145.143 135.293C130.898 139.131 114.024 149.308 102.891 160.775C55.7302 209.349 69.8547 284.361 131.878 314.727C146.673 321.97 160.986 324.785 178.934 323.983C196.222 323.209 207.137 320.449 221.75 313.155C231.241 308.419 240.189 302.189 240.189 300.317C240.189 299.837 234.944 299.672 228.533 299.954C222.122 300.234 213.832 299.832 210.11 299.061C199.456 296.853 192.674 295.184 190.055 294.129C188.726 293.593 185.737 292.451 183.411 291.591C175.53 288.676 162.479 280.257 154.802 273.136C140.976 260.312 131.442 245.106 127.079 228.918C124.487 219.307 123.628 200.664 125.321 190.755C126.93 181.334 132.03 165.805 135.015 161.234C136.1 159.573 137.778 156.648 138.744 154.734C139.708 152.821 143.63 147.525 147.458 142.966C151.285 138.407 154.418 134.401 154.418 134.062C154.418 133.125 151.998 133.446 145.143 135.293ZM135.018 176.97C133.834 179.11 133.389 184.585 133.453 196.267C133.536 211.429 133.827 213.425 137.586 224.649C148.335 256.743 174.832 280.631 209.384 289.383C223.482 292.953 245.078 293.296 258.062 290.157C266.581 288.096 282.444 282.355 283.679 280.886C284.011 280.491 286.867 278.821 290.026 277.177C298.404 272.814 311.957 261.217 318.476 252.833C328.257 240.252 331.873 232.499 336.754 213.644C338.354 207.462 338.452 186.999 336.886 186.031C336.251 185.639 334.811 186.83 333.685 188.678C320.498 210.338 311.864 220.072 297.575 229.388C285.945 236.97 279.764 239.899 268.578 243.13C244.365 250.121 221.41 248.832 197.498 239.138C185.656 234.339 173.232 225.823 163.006 215.499C151.087 203.466 145.883 195.551 138.463 178.178L136.672 173.982L135.018 176.97Z" fill="#B8965A"/>
</svg>
