<svg width="171" height="29" viewBox="0 0 171 29" fill="none" xmlns="http://www.w3.org/2000/svg">
<path d="M71.8516 18.9943H77.2137V20.43H73.483V22.0506H76.8874V23.4754H73.483V25.1721H77.2789V26.6078H71.8516V18.9943Z" fill="white"/>
<path d="M79.6644 22.0506C80.0669 21.5829 80.6542 21.2348 81.4047 21.2348C82.7751 21.2348 83.5256 22.1702 83.5256 23.3775V26.6078H82.0138V23.5733C82.0138 22.8663 81.5896 22.54 81.0023 22.54C80.4693 22.54 80.056 22.888 79.8385 23.2035V26.6078H78.3266V21.3871H79.6644V22.0506Z" fill="white"/>
<path d="M85.0911 19.8644L86.5921 19.5055V21.3871H88.2453V22.6596H86.5921V24.7044C86.5921 25.2482 86.864 25.4875 87.4296 25.4875C87.7776 25.4875 88.0713 25.4331 88.3758 25.3135V26.5317C87.9734 26.6731 87.4948 26.7601 86.9728 26.7601C85.9613 26.7601 85.0911 26.2924 85.0911 24.9981V22.6596H84.2101V21.3871H85.0911V19.8644Z" fill="white"/>
<path d="M88.952 23.9974C88.952 22.0288 90.4638 21.2348 91.6384 21.2348C93.8029 21.2348 94.499 22.9424 94.1509 24.4869H90.4747C90.6487 25.2482 91.4535 25.5637 92.3128 25.5637C92.911 25.5637 93.4439 25.444 93.8899 25.2482V26.4338C93.4004 26.6404 92.7587 26.7601 91.9756 26.7601C90.3224 26.7601 88.952 25.8138 88.952 23.9974ZM92.7914 23.508C92.8457 23.1491 92.6391 22.3877 91.6928 22.3877C91.0511 22.3877 90.4855 22.7902 90.4638 23.508H92.7914Z" fill="white"/>
<path d="M96.5315 22.1702C96.9013 21.5937 97.6627 21.1804 98.6415 21.2783V22.7467C97.8149 22.6053 97.0209 22.9207 96.7055 23.5406V26.6078H95.1937V21.3871H96.5315V22.1702Z" fill="white"/>
<path d="M100.78 22.1484C101.106 21.6808 101.705 21.2348 102.673 21.2348C104.326 21.2348 105.218 22.5726 105.218 23.9974C105.218 25.4223 104.326 26.7601 102.673 26.7601C101.846 26.7601 101.291 26.4229 100.954 26.0531V29.0006H99.4423V21.3871H100.78V22.1484ZM103.673 23.9974C103.673 23.1817 103.162 22.5074 102.303 22.5074C101.639 22.5074 101.15 22.9207 100.943 23.3775V24.6174C101.15 25.0742 101.639 25.4875 102.303 25.4875C103.162 25.4875 103.673 24.8132 103.673 23.9974Z" fill="white"/>
<path d="M107.546 22.1702C107.916 21.5937 108.677 21.1804 109.656 21.2783V22.7467C108.829 22.6053 108.036 22.9207 107.72 23.5406V26.6078H106.208V21.3871H107.546V22.1702Z" fill="white"/>
<path d="M111.98 26.6078H110.468V21.3871H111.98V26.6078ZM112.11 19.6577C112.11 20.2559 111.697 20.517 111.218 20.517C110.751 20.517 110.337 20.2559 110.337 19.6577C110.337 19.0704 110.751 18.8094 111.218 18.8094C111.697 18.8094 112.11 19.0704 112.11 19.6577Z" fill="white"/>
<path d="M113.054 22.8445C113.054 21.6372 114.131 21.2348 115.229 21.2348C115.969 21.2348 116.621 21.4197 117.154 21.6808V22.9207C116.708 22.6161 115.947 22.3877 115.327 22.3877C114.99 22.3877 114.598 22.4856 114.598 22.801C114.598 23.6712 117.546 23.2361 117.546 25.1504C117.546 26.3794 116.426 26.7601 115.175 26.7601C114.381 26.7601 113.63 26.5861 113.097 26.2706V25.0198C113.663 25.3896 114.457 25.5745 115.088 25.5745C115.642 25.5745 116.001 25.4766 116.001 25.183C116.001 24.3455 113.054 24.7153 113.054 22.8445Z" fill="white"/>
<path d="M118.172 23.9974C118.172 22.0288 119.684 21.2348 120.858 21.2348C123.023 21.2348 123.719 22.9424 123.371 24.4869H119.695C119.869 25.2482 120.673 25.5637 121.533 25.5637C122.131 25.5637 122.664 25.444 123.11 25.2482V26.4338C122.62 26.6404 121.979 26.7601 121.196 26.7601C119.542 26.7601 118.172 25.8138 118.172 23.9974ZM122.011 23.508C122.066 23.1491 121.859 22.3877 120.913 22.3877C120.271 22.3877 119.705 22.7902 119.684 23.508H122.011Z" fill="white"/>
<path d="M126.999 18.9943H129.87C131.708 18.9943 133.155 19.5816 133.155 21.5502C133.155 23.5189 131.708 24.1062 129.87 24.1062H128.63V26.6078H126.999V18.9943ZM131.491 21.5502C131.491 20.6475 130.784 20.43 129.946 20.43H128.63V22.6705H129.946C130.784 22.6705 131.491 22.4421 131.491 21.5502Z" fill="white"/>
<path d="M134.09 18.668H135.602V26.6078H134.09V18.668Z" fill="white"/>
<path d="M141.571 25.2591C141.571 25.531 141.745 25.6072 141.94 25.6072C142.027 25.6072 142.125 25.5963 142.223 25.5637V26.5534C141.984 26.6404 141.679 26.7057 141.386 26.7057C140.853 26.7057 140.45 26.5099 140.233 26.1184C139.722 26.5208 139.123 26.7601 138.351 26.7601C137.372 26.7601 136.524 26.1945 136.524 25.1612C136.524 23.8343 137.775 23.421 138.819 23.421C139.232 23.421 139.689 23.4754 140.059 23.5624V23.3775C140.059 22.8554 139.645 22.4965 138.83 22.4965C138.112 22.4965 137.47 22.6923 136.981 22.888V21.5829C137.405 21.4415 138.199 21.2348 139.004 21.2348C140.57 21.2348 141.571 21.8765 141.571 23.595V25.2591ZM139.167 24.3237C138.612 24.3237 138.068 24.5086 138.068 25.0416C138.068 25.4331 138.427 25.6833 138.884 25.6833C139.308 25.6833 139.711 25.5637 140.059 25.2591V24.4434C139.83 24.389 139.482 24.3237 139.167 24.3237Z" fill="white"/>
<path d="M143.276 19.8644L144.777 19.5055V21.3871H146.43V22.6596H144.777V24.7044C144.777 25.2482 145.049 25.4875 145.615 25.4875C145.963 25.4875 146.256 25.4331 146.561 25.3135V26.5317C146.158 26.6731 145.68 26.7601 145.158 26.7601C144.146 26.7601 143.276 26.2924 143.276 24.9981V22.6596H142.395V21.3871H143.276V19.8644Z" fill="white"/>
<path d="M149.443 26.6078H147.942V22.6596H147.039V21.3871H147.942V20.8759C147.942 19.2988 149.008 18.842 149.997 18.842C150.476 18.842 150.944 18.929 151.281 19.0595V20.3321C151.052 20.2016 150.715 20.1145 150.378 20.1145C149.889 20.1145 149.443 20.2886 149.443 20.9412V21.3871H151.042V22.6596H149.443V26.6078Z" fill="white"/>
<path d="M151.407 23.9974C151.407 22.1702 152.777 21.2348 154.289 21.2348C155.812 21.2348 157.171 22.1702 157.171 23.9974C157.171 25.8247 155.812 26.7601 154.289 26.7601C152.777 26.7601 151.407 25.8247 151.407 23.9974ZM155.638 23.9974C155.638 23.1926 155.159 22.5835 154.289 22.5835C153.43 22.5835 152.951 23.1926 152.951 23.9974C152.951 24.8023 153.43 25.4114 154.289 25.4114C155.159 25.4114 155.638 24.8023 155.638 23.9974Z" fill="white"/>
<path d="M159.496 22.1702C159.866 21.5937 160.627 21.1804 161.606 21.2783V22.7467C160.78 22.6053 159.986 22.9207 159.67 23.5406V26.6078H158.158V21.3871H159.496V22.1702Z" fill="white"/>
<path d="M163.919 26.6078H162.407V21.3871H163.745V21.9962C164.017 21.6699 164.615 21.2348 165.409 21.2348C166.192 21.2348 166.703 21.5611 167.008 22.0071C167.443 21.5829 168.03 21.2348 168.748 21.2348C170.216 21.2348 170.695 22.3769 170.695 23.3014V26.6078H169.194V23.3992C169.194 22.8554 168.857 22.54 168.378 22.54C167.965 22.54 167.595 22.7793 167.345 23.0621C167.356 23.1382 167.356 23.2143 167.356 23.3014V26.6078H165.855V23.3992C165.855 22.8554 165.518 22.54 165.039 22.54C164.582 22.54 164.169 22.8445 163.919 23.1708V26.6078Z" fill="white"/>
<path d="M73.7223 11.8005H71.1094L75.9307 0H78.6617L83.4661 11.8005H80.8532L79.9934 9.59208H74.5989L73.7223 11.8005ZM77.0265 3.27041L75.3913 7.50171H79.2011L77.549 3.27041C77.4648 3.0344 77.3805 2.79839 77.2962 2.34323C77.2119 2.79839 77.1276 3.0344 77.0265 3.27041Z" fill="white"/>
<path d="M84.7854 0H87.3141V11.8005H84.7854V0Z" fill="white"/>
<path d="M89.5023 6.7094H95.7734V8.68176H89.5023V6.7094Z" fill="white"/>
<path d="M105.794 0H108.323V11.8005H105.794V7.04655H100.501V11.8005H97.972V0H100.501V4.7539H105.794V0Z" fill="white"/>
<path d="M118.567 0H121.078V7.36685C121.078 10.8564 118.516 12.0365 115.903 12.0365C113.29 12.0365 110.728 10.8564 110.728 7.36685V0H113.256V7.23199C113.256 9.1032 114.335 9.76066 115.903 9.76066C117.488 9.76066 118.567 9.1032 118.567 7.23199V0Z" fill="white"/>
<path d="M123.489 0H128.648C131.159 0 132.727 0.960895 132.727 2.98383C132.727 4.36617 131.985 5.20906 130.94 5.56307C132.103 5.90023 133.199 6.75997 133.199 8.49632C133.199 11.1767 130.62 11.8005 128.563 11.8005H123.489V0ZM130.671 8.2266C130.671 6.97912 129.676 6.7094 128.664 6.7094H126.001V9.7438H128.53C129.659 9.7438 130.671 9.50779 130.671 8.2266ZM130.215 3.42213C130.215 2.49495 129.541 2.07351 128.428 2.07351H126.018V4.77075H128.563C129.524 4.77075 130.215 4.33245 130.215 3.42213Z" fill="white"/>
<path d="M14.5 0C18.3456 1.10515e-05 22.0337 1.52781 24.7529 4.24707C27.4722 6.96634 29 10.6544 29 14.5C29 18.0919 27.667 21.5462 25.2754 24.2021H29.1621V29H14.5L14.1396 28.9951C10.4246 28.9029 6.88129 27.3871 4.24707 24.7529C1.52781 22.0337 1.24785e-05 18.3456 0 14.5C5.80674e-07 10.6544 1.5278 6.96634 4.24707 4.24707C6.96634 1.5278 10.6544 -2.90337e-07 14.5 0ZM48.5195 0.0146484C51.136 0.132713 55.3043 1.64396 57.1641 3.47656L53.1279 6.5332C51.689 5.58284 50.0195 5.03973 48.2969 4.96191C46.574 4.88417 44.8616 5.27477 43.3428 6.0918C41.824 6.90882 40.5546 8.12215 39.6699 9.60254C38.7854 11.0829 38.3184 12.7755 38.3184 14.5C38.3184 16.2245 38.7853 17.9171 39.6699 19.3975C40.5546 20.8779 41.824 22.0912 43.3428 22.9082C44.8616 23.7252 46.574 24.1158 48.2969 24.0381C50.0195 23.9603 51.689 23.4171 53.1279 22.4668L57.1641 25.5234C55.3043 27.356 51.136 28.8673 48.5195 28.9854C45.9031 29.1034 43.3036 28.5103 40.9971 27.2695C38.6904 26.0287 36.7625 24.1859 35.4189 21.9375C34.0755 19.6892 33.3662 17.1191 33.3662 14.5C33.3662 11.8809 34.0755 9.31078 35.4189 7.0625C36.7625 4.81413 38.6904 2.97131 40.9971 1.73047C43.3036 0.489724 45.9031 -0.103391 48.5195 0.0146484ZM14.5 4.95215C11.9679 4.95215 9.53952 5.95853 7.74902 7.74902C5.95853 9.53952 4.95215 11.9679 4.95215 14.5C4.95216 17.0321 5.95854 19.4605 7.74902 21.251C9.53952 23.0414 11.9679 24.0479 14.5 24.0479C17.0321 24.0478 19.4605 23.0415 21.251 21.251C23.0415 19.4605 24.0478 17.0321 24.0479 14.5C24.0479 11.9679 23.0414 9.53952 21.251 7.74902C19.4605 5.95854 17.0321 4.95216 14.5 4.95215Z" fill="white"/>
</svg>
