<svg width="1061" height="858" viewBox="0 0 1061 858" fill="none" xmlns="http://www.w3.org/2000/svg">
<path d="M269 0C340.343 5.38626e-06 408.765 28.3408 459.212 78.7881C509.659 129.235 538 197.657 538 269C538 335.638 513.273 399.726 468.901 449H541V538H269C197.657 538 129.235 509.659 78.7881 459.212C28.3408 408.765 1.88555e-05 340.343 0 269C1.07725e-05 197.657 28.3408 129.235 78.7881 78.7881C129.235 28.3408 197.657 2.6959e-06 269 0ZM760.563 32.1016C803.356 9.08196 851.584 -1.91695 900.126 0.273438C948.668 2.46384 1026 30.5 1060.5 64.5L985.618 121.206C958.921 103.573 927.947 93.4999 895.984 92.0576C864.022 90.6154 832.266 97.8575 804.09 113.015C775.913 128.172 752.368 150.679 735.956 178.144C719.544 205.608 710.877 237.005 710.877 269C710.877 300.995 719.544 332.392 735.956 359.856C752.368 387.321 775.913 409.828 804.09 424.985C832.266 440.143 864.022 447.385 895.984 445.942C927.947 444.5 958.921 434.427 985.618 416.794L1060.5 473.5C1026 507.5 948.668 535.536 900.126 537.727C851.584 539.917 803.356 528.918 760.563 505.898C717.771 482.879 682.012 448.698 657.087 406.986C632.162 365.275 619 317.591 619 269C619 220.409 632.162 172.725 657.087 131.014C682.012 89.3024 717.771 55.1213 760.563 32.1016ZM269 91.877C222.024 91.8769 176.973 110.539 143.756 143.756C110.539 176.973 91.877 222.024 91.877 269C91.877 315.976 110.539 361.027 143.756 394.244C176.973 427.461 222.024 446.123 269 446.123C315.976 446.123 361.027 427.461 394.244 394.244C427.461 361.027 446.123 315.976 446.123 269C446.123 222.024 427.461 176.973 394.244 143.756C361.027 110.539 315.976 91.877 269 91.877Z" fill="white"/>
<path d="M46.1307 839H2.00588L83.4233 639.727H129.541L210.674 839H166.549L152.03 801.707H60.9339L46.1307 839ZM101.927 694.954L74.3137 766.408H138.651L110.752 694.954C109.329 690.968 107.905 686.983 106.482 679.297C105.059 686.983 103.635 690.968 101.927 694.954ZM232.952 639.727H275.653V839H232.952V639.727ZM312.606 753.028H418.505V786.335H312.606V753.028ZM587.723 639.727H630.424V839H587.723V758.721H498.335V839H455.633V639.727H498.335V720.005H587.723V639.727ZM803.414 639.727H845.831V764.13C845.831 823.058 802.56 842.985 758.435 842.985C714.311 842.985 671.04 823.058 671.04 764.13V639.727H713.741V761.853C713.741 793.452 731.961 804.554 758.435 804.554C785.195 804.554 803.414 793.452 803.414 761.853V639.727ZM886.54 639.727H973.651C1016.07 639.727 1042.54 655.953 1042.54 690.114C1042.54 713.458 1030.02 727.692 1012.37 733.67C1032.01 739.363 1050.51 753.882 1050.51 783.203C1050.51 828.467 1006.96 839 972.227 839H886.54V639.727ZM1007.81 778.649C1007.81 757.583 991.016 753.028 973.935 753.028H928.957V804.269H971.658C990.731 804.269 1007.81 800.284 1007.81 778.649ZM1000.13 697.516C1000.13 681.859 988.739 674.742 969.95 674.742H929.241V720.29H972.227C988.454 720.29 1000.13 712.888 1000.13 697.516Z" fill="white"/>
</svg>
