<svg width="1061" height="858" viewBox="0 0 1061 858" fill="none" xmlns="http://www.w3.org/2000/svg">
<path d="M269.25 0C340.593 5.38626e-06 409.015 28.3408 459.462 78.7881C509.909 129.235 538.25 197.657 538.25 269C538.25 335.638 513.523 399.726 469.151 449H541.25V538H269.25C197.907 538 129.485 509.659 79.0381 459.212C28.5908 408.765 0.250019 340.343 0.25 269C0.250011 197.657 28.5908 129.235 79.0381 78.7881C129.485 28.3408 197.907 2.6959e-06 269.25 0ZM760.813 32.1016C803.606 9.08196 851.834 -1.91695 900.376 0.273438C948.918 2.46384 1026.25 30.5 1060.75 64.5L985.868 121.206C959.171 103.573 928.197 93.4999 896.234 92.0576C864.272 90.6154 832.516 97.8575 804.34 113.015C776.163 128.172 752.618 150.679 736.206 178.144C719.794 205.608 711.127 237.005 711.127 269C711.127 300.995 719.794 332.392 736.206 359.856C752.618 387.321 776.163 409.828 804.34 424.985C832.516 440.143 864.272 447.385 896.234 445.942C928.197 444.5 959.171 434.427 985.868 416.794L1060.75 473.5C1026.25 507.5 948.918 535.536 900.376 537.727C851.834 539.917 803.606 528.918 760.813 505.898C718.021 482.879 682.262 448.698 657.337 406.986C632.412 365.275 619.25 317.591 619.25 269C619.25 220.409 632.412 172.725 657.337 131.014C682.262 89.3024 718.021 55.1213 760.813 32.1016ZM269.25 91.877C222.274 91.8769 177.223 110.539 144.006 143.756C110.789 176.973 92.127 222.024 92.127 269C92.127 315.976 110.789 361.027 144.006 394.244C177.223 427.461 222.274 446.123 269.25 446.123C316.226 446.123 361.277 427.461 394.494 394.244C427.711 361.027 446.373 315.976 446.373 269C446.373 222.024 427.711 176.973 394.494 143.756C361.277 110.539 316.226 91.877 269.25 91.877Z" fill="#04102F"/>
<path d="M46.3807 839H2.25588L83.6733 639.727H129.791L210.924 839H166.799L152.28 801.707H61.1839L46.3807 839ZM102.177 694.954L74.5637 766.408H138.901L111.002 694.954C109.579 690.968 108.155 686.983 106.732 679.297C105.309 686.983 103.885 690.968 102.177 694.954ZM233.202 639.727H275.903V839H233.202V639.727ZM312.856 753.028H418.755V786.335H312.856V753.028ZM587.973 639.727H630.674V839H587.973V758.721H498.585V839H455.883V639.727H498.585V720.005H587.973V639.727ZM803.664 639.727H846.081V764.13C846.081 823.058 802.81 842.985 758.685 842.985C714.561 842.985 671.29 823.058 671.29 764.13V639.727H713.991V761.853C713.991 793.452 732.211 804.554 758.685 804.554C785.445 804.554 803.664 793.452 803.664 761.853V639.727ZM886.79 639.727H973.901C1016.32 639.727 1042.79 655.953 1042.79 690.114C1042.79 713.458 1030.27 727.692 1012.62 733.67C1032.26 739.363 1050.76 753.882 1050.76 783.203C1050.76 828.467 1007.21 839 972.477 839H886.79V639.727ZM1008.06 778.649C1008.06 757.583 991.266 753.028 974.185 753.028H929.207V804.269H971.908C990.981 804.269 1008.06 800.284 1008.06 778.649ZM1000.38 697.516C1000.38 681.859 988.989 674.742 970.2 674.742H929.491V720.29H972.477C988.704 720.29 1000.38 712.888 1000.38 697.516Z" fill="#04102F"/>
</svg>
