<svg width="58" height="29" viewBox="0 0 58 29" fill="none" xmlns="http://www.w3.org/2000/svg">
<path d="M14.5 8.25506e-05C18.3456 9.36021e-05 22.0337 1.52789 24.7529 4.24715C27.4722 6.96642 29 10.6545 29 14.5001C29 18.092 27.667 21.5463 25.2754 24.2022H29.1621V29.0001H14.5L14.1396 28.9952C10.4246 28.903 6.88129 27.3872 4.24707 24.753C1.52781 22.0338 1.24785e-05 18.3457 0 14.5001C5.80674e-07 10.6545 1.5278 6.96642 4.24707 4.24715C6.96634 1.52788 10.6544 8.22603e-05 14.5 8.25506e-05ZM48.5195 0.014731C51.136 0.132796 55.3043 1.64404 57.1641 3.47665L53.1279 6.53329C51.689 5.58292 50.0195 5.03981 48.2969 4.962C46.574 4.88425 44.8616 5.27485 43.3428 6.09188C41.824 6.90891 40.5546 8.12223 39.6699 9.60262C38.7854 11.083 38.3184 12.7756 38.3184 14.5001C38.3184 16.2246 38.7853 17.9172 39.6699 19.3975C40.5546 20.8779 41.824 22.0913 43.3428 22.9083C44.8616 23.7253 46.574 24.1159 48.2969 24.0382C50.0195 23.9604 51.689 23.4172 53.1279 22.4669L57.1641 25.5235C55.3043 27.3561 51.136 28.8674 48.5195 28.9854C45.9031 29.1035 43.3036 28.5103 40.9971 27.2696C38.6904 26.0288 36.7625 24.186 35.4189 21.9376C34.0755 19.6893 33.3662 17.1192 33.3662 14.5001C33.3662 11.881 34.0755 9.31086 35.4189 7.06258C36.7625 4.81421 38.6904 2.97139 40.9971 1.73055C43.3036 0.489806 45.9031 -0.103309 48.5195 0.014731ZM14.5 4.95223C11.9679 4.95223 9.53952 5.95861 7.74902 7.74911C5.95853 9.5396 4.95215 11.9679 4.95215 14.5001C4.95216 17.0322 5.95854 19.4606 7.74902 21.2511C9.53952 23.0415 11.9679 24.0479 14.5 24.0479C17.0321 24.0479 19.4605 23.0415 21.251 21.2511C23.0415 19.4606 24.0478 17.0322 24.0479 14.5001C24.0479 11.968 23.0414 9.5396 21.251 7.74911C19.4605 5.95862 17.0321 4.95224 14.5 4.95223Z" fill="white"/>
</svg>
