<svg width="58" height="29" viewBox="0 0 58 29" fill="none" xmlns="http://www.w3.org/2000/svg">
<path d="M14.5 0C18.3456 1.10515e-05 22.0337 1.52781 24.7529 4.24707C27.4722 6.96634 29 10.6544 29 14.5C29 18.0919 27.667 21.5462 25.2754 24.2021H29.1621V29H14.5L14.1396 28.9951C10.4246 28.9029 6.88129 27.3871 4.24707 24.7529C1.52781 22.0337 1.24785e-05 18.3456 0 14.5C5.80674e-07 10.6544 1.5278 6.96634 4.24707 4.24707C6.96634 1.5278 10.6544 -2.90337e-07 14.5 0ZM48.5195 0.0146484C51.136 0.132713 55.3043 1.64396 57.1641 3.47656L53.1279 6.5332C51.689 5.58284 50.0195 5.03973 48.2969 4.96191C46.574 4.88417 44.8616 5.27477 43.3428 6.0918C41.824 6.90882 40.5546 8.12215 39.6699 9.60254C38.7854 11.0829 38.3184 12.7755 38.3184 14.5C38.3184 16.2245 38.7853 17.9171 39.6699 19.3975C40.5546 20.8779 41.824 22.0912 43.3428 22.9082C44.8616 23.7252 46.574 24.1158 48.2969 24.0381C50.0195 23.9603 51.689 23.4171 53.1279 22.4668L57.1641 25.5234C55.3043 27.356 51.136 28.8673 48.5195 28.9854C45.9031 29.1034 43.3036 28.5103 40.9971 27.2695C38.6904 26.0287 36.7625 24.1859 35.4189 21.9375C34.0755 19.6892 33.3662 17.1191 33.3662 14.5C33.3662 11.8809 34.0755 9.31078 35.4189 7.0625C36.7625 4.81413 38.6904 2.97131 40.9971 1.73047C43.3036 0.489724 45.9031 -0.103391 48.5195 0.0146484ZM14.5 4.95215C11.9679 4.95215 9.53952 5.95853 7.74902 7.74902C5.95853 9.53952 4.95215 11.9679 4.95215 14.5C4.95216 17.0321 5.95854 19.4605 7.74902 21.251C9.53952 23.0414 11.9679 24.0479 14.5 24.0479C17.0321 24.0478 19.4605 23.0415 21.251 21.251C23.0415 19.4605 24.0478 17.0321 24.0479 14.5C24.0479 11.9679 23.0414 9.53952 21.251 7.74902C19.4605 5.95854 17.0321 4.95216 14.5 4.95215Z" fill="#04102F"/>
</svg>
