<svg width="106" height="182" viewBox="0 0 106 182" fill="none" xmlns="http://www.w3.org/2000/svg">
<path d="M27.9492 75.4687C27.0786 75.8458 26.2182 76.2441 25.3682 76.6582C20.2294 78.9104 15.4177 81.7716 11.0254 85.1504C4.17389 76.2381 0.0724459 65.1013 -0.00097888 53.0078L19.2158 53.0078C19.2978 61.641 22.5885 69.5036 27.9492 75.4687ZM53.001 19.2168C34.4196 19.3937 19.3932 34.4195 19.2168 53.001L-2.31675e-06 53.001C0.17723 23.8082 23.8083 0.177674 53.001 -2.31683e-06L53.001 19.2168ZM53.001 106.008C34.4198 106.185 19.3907 121.214 19.2139 139.795L-6.11063e-06 139.795C0.177714 110.602 23.8085 86.9725 53.001 86.7949L53.001 106.008ZM21.0469 181.918C8.33791 172.238 0.105492 156.982 0.000970452 139.797L19.2139 139.797C19.3182 150.768 24.6016 160.5 32.7353 166.668L21.0469 181.918ZM106.003 53.0049C105.826 82.1977 82.1946 105.828 53.0019 106.006L53.0019 86.7891C71.5833 86.6122 86.6097 71.5863 86.7861 53.0049L106.003 53.0049ZM86.7871 53.001C86.6107 34.4193 71.5846 19.3924 53.0029 19.2158L53.0029 -2.31675e-06C82.1959 0.177361 105.827 23.808 106.004 53.001L86.7871 53.001ZM106.003 139.797C105.9 156.794 97.8449 171.904 85.3721 181.599L73.6836 166.349C81.5817 160.167 86.6865 150.58 86.7891 139.797L106.003 139.797ZM86.7861 139.794C86.704 131.117 83.3844 123.216 77.9766 117.239C84.1204 114.849 89.8375 111.604 94.9795 107.647C101.831 116.56 105.929 127.7 106.002 139.794L86.7861 139.794Z" fill="black"/>
</svg>
