<svg width="89" height="40" viewBox="0 0 89 40" fill="none" xmlns="http://www.w3.org/2000/svg">
<g clip-path="url(#clip0_566_159)">
<g clip-path="url(#clip1_566_159)">
<g clip-path="url(#clip2_566_159)">
<path d="M6.34058 21.3983L0.347656 21.5114V20.7885L6.34146 20.9356C6.33851 21.0258 6.33851 21.1149 6.33851 21.2051C6.33851 21.2701 6.33959 21.3342 6.34058 21.3983ZM16.7428 10.5013L16.5966 4.71777H17.3287L17.2165 10.5013C17.1324 10.4993 17.0472 10.4983 16.9631 10.4983C16.8901 10.4983 16.8159 10.4993 16.7428 10.5013ZM27.5848 20.9356L33.5786 20.7885V21.5114L27.5858 21.3983C27.5868 21.3342 27.5878 21.2701 27.5878 21.2051C27.5878 21.1149 27.5878 21.0258 27.5848 20.9356ZM6.41455 22.4905L0.475753 23.2186L0.399622 22.4986L6.36946 22.0298C6.38046 22.1841 6.39647 22.3373 6.41455 22.4905ZM15.6241 10.582L14.8719 4.84459L15.5991 4.76846L16.0957 10.5329C15.9376 10.5469 15.7803 10.562 15.6241 10.582ZM27.5025 19.8446L33.4503 19.0825L33.5265 19.8016L27.5506 20.3053C27.5377 20.1511 27.5226 19.9979 27.5025 19.8446ZM6.59844 23.5712L0.781946 24.9032L0.630666 24.1952L6.50738 23.1176C6.53439 23.2698 6.56543 23.421 6.59844 23.5712ZM14.5221 10.7824L13.1682 5.14695L13.8842 4.99774L14.9848 10.6842C14.8296 10.7131 14.6744 10.7464 14.5221 10.7824ZM27.3109 18.767L33.1435 17.397L33.2948 18.1051L27.4051 19.2207C27.3773 19.0688 27.3459 18.9175 27.3109 18.767ZM6.89294 24.6296L1.26466 26.5473L1.0403 25.8583L6.75571 24.1858C6.79783 24.3348 6.84358 24.4827 6.89294 24.6295M13.4476 11.0985L11.5067 5.62447L12.2027 5.40216L13.8973 10.9514C13.746 10.9974 13.5957 11.0465 13.4476 11.0985ZM27.0105 17.7143L32.6609 15.7534L32.8862 16.4424L27.1507 18.156C27.1066 18.008 27.0598 17.8607 27.0105 17.7143ZM7.29609 25.6543L1.91723 28.131L1.62076 27.4701L7.11289 25.2267C7.17105 25.3705 7.23213 25.5131 7.29609 25.6543ZM12.4156 11.5255L9.90399 6.26986L10.573 5.97742L12.8463 11.3313C12.7015 11.3934 12.558 11.4582 12.4156 11.5255ZM26.6025 16.6962L32.0095 14.1685L32.3049 14.8305L26.7868 17.1208C26.7283 16.978 26.6669 16.8365 26.6026 16.6962M7.80366 26.6348L2.73217 29.6412L2.36871 29.0133L7.57635 26.2263C7.64957 26.3639 7.72535 26.5001 7.80366 26.6349M11.436 12.0584L8.37754 7.07596L9.01243 6.71643L11.8425 11.821C11.7054 11.8981 11.5702 11.9772 11.436 12.0584ZM26.0916 15.7228L31.1931 12.6593L31.5576 13.2872L26.32 16.1284C26.2466 15.9916 26.1704 15.8564 26.0916 15.7228ZM23.1298 29.9797L23.1048 29.9436C23.2332 29.8519 23.3595 29.757 23.4834 29.6592L23.7267 29.9797H23.1298ZM8.41212 27.5602L5.15539 29.9797H4.00262L8.14277 27.1766C8.22901 27.3068 8.31883 27.4347 8.41212 27.5601M10.5212 12.6912L6.94412 8.03639L7.53794 7.61271L10.8999 12.4118C10.7717 12.503 10.6455 12.5951 10.5214 12.6912M25.4823 14.8054L30.2234 11.242L30.652 11.829L25.7518 15.1859C25.6646 15.0577 25.5746 14.9305 25.4824 14.8054M24.61 29.9797L23.98 29.2446C24.0979 29.1406 24.2131 29.0338 24.3256 28.9241L25.316 29.9797H24.61ZM9.1142 28.4214L7.41771 29.9797H6.53036L8.80574 28.0669C8.90559 28.1876 9.00844 28.3058 9.1142 28.4214ZM9.67904 13.4113L5.62004 9.137L6.16582 8.65526L10.0255 13.0958C9.9072 13.1978 9.79167 13.3031 9.67904 13.4113ZM24.7802 13.9541L29.1107 9.9321L29.5973 10.4719L25.0877 14.3055C24.9879 14.1861 24.8854 14.0689 24.7802 13.9541ZM26.3812 29.979L24.7747 28.4627C24.8799 28.3465 24.983 28.2293 25.0842 28.1092L27.2484 29.979H26.3811H26.3812ZM9.90487 29.2078L9.22284 29.979H8.50476L9.56037 28.8853C9.67252 28.9957 9.78739 29.1032 9.90487 29.2078ZM8.91625 14.2127L4.41874 10.3681L4.9105 9.83327L9.22883 13.8653C9.12157 13.9782 9.01741 14.0941 8.91645 14.2127M23.9916 13.1763L27.8653 8.74367L28.406 9.23042L24.3351 13.4957C24.223 13.3866 24.1085 13.2801 23.9916 13.1763ZM28.5868 29.979L25.4822 27.6055C25.5744 27.4803 25.6654 27.352 25.7526 27.2229L29.7065 29.979H28.5868ZM10.7755 29.9109L10.7264 29.979H10.1206L10.398 29.6243C10.5212 29.7226 10.6473 29.8178 10.7755 29.9109ZM8.24277 15.087L3.35261 11.7171L3.78523 11.1332L8.51713 14.7095C8.42286 14.8332 8.33138 14.9591 8.24277 15.087ZM23.1257 12.4822L26.5017 7.69012L27.0916 8.11773L23.5013 12.7647C23.3783 12.6676 23.253 12.5735 23.1257 12.4822ZM31.1217 29.7574L26.0943 26.6819C26.1742 26.548 26.2507 26.4121 26.3236 26.2743L31.4913 29.1325L31.1217 29.7574V29.7574ZM7.66417 16.0223L2.43443 13.1681L2.80398 12.5431L7.89748 15.6198C7.81645 15.752 7.73866 15.8862 7.66417 16.0223ZM22.1886 11.8812L25.0348 6.78166L25.6656 7.14728L22.5931 12.1236C22.4599 12.0401 22.325 11.9593 22.1886 11.8812ZM31.9498 28.2547L26.6079 25.703C26.6724 25.5621 26.7338 25.4199 26.7922 25.2763L32.2523 27.5957L31.9498 28.2547ZM7.18538 17.0102L1.6742 14.7057L1.97568 14.0458L7.37458 16.5865C7.30827 16.7263 7.24519 16.8675 7.18538 17.0102ZM21.192 11.3799L23.4793 6.02909L24.1463 6.3285L21.6206 11.5793C21.4793 11.5094 21.3364 11.4428 21.192 11.3799ZM32.6158 26.675L27.0155 24.6801C27.0656 24.5338 27.1117 24.3857 27.1547 24.2374L32.8461 25.9879L32.6158 26.675ZM6.80984 18.0403L1.0794 16.3118L1.31074 15.6257L6.95503 17.6006C6.90395 17.7459 6.85483 17.893 6.80984 18.0403ZM20.1453 10.9869L21.8549 5.44165L22.5489 5.67005L20.5931 11.1401C20.4453 11.0848 20.296 11.0338 20.1453 10.9869ZM33.1118 25.0357L27.3163 23.6237C27.3504 23.4735 27.3815 23.3223 27.4096 23.169L33.2692 24.3288L33.112 25.0358L33.1118 25.0357ZM6.54264 19.102L0.656993 17.9723L0.814265 17.2652L6.64284 18.6493C6.60679 18.7995 6.57378 18.9507 6.54264 19.102ZM19.0611 10.7076L20.1767 5.02318L20.8909 5.17937L19.5238 10.8107C19.3705 10.7737 19.2163 10.7386 19.0611 10.7076ZM33.433 23.3539L27.5052 22.5437C27.5253 22.3904 27.5403 22.2382 27.5524 22.083L33.5152 22.6348L33.433 23.3539ZM6.38616 20.1852L0.41141 19.6665L0.493533 18.9475L6.4392 19.7245C6.41926 19.8777 6.4002 20.031 6.38616 20.1852ZM17.9521 10.5451L18.463 4.78054L19.1911 4.86169L18.4229 10.5991C18.2665 10.577 18.1096 10.559 17.9522 10.5451" fill="white"/>
<path d="M24.5019 13.563C25.329 13.6931 26.0351 14.1118 26.666 14.6755L27.344 15.2805L26.666 15.8854C26.0351 16.4492 25.3291 16.8688 24.5019 16.998V18.353C24.5019 18.8417 24.8323 19.6209 24.9956 20.0936C25.3512 21.1231 25.6606 22.3549 24.604 23.102L14.5713 30.2084L14.5312 29.6325C14.3889 27.6045 14.9237 27.0717 15.4565 25.2781C15.5377 25.0077 15.3153 24.4308 15.2221 24.1705C14.9618 23.4495 14.7114 22.7664 14.7114 21.9872V19.735L10.2589 22.8926L9.80723 22.1434C7.34551 18.0645 7.34551 12.4962 9.80723 8.41632L10.2589 7.66915L14.7114 10.8258V8.57359C14.7114 7.79548 14.9618 7.11247 15.2222 6.39035C15.3153 6.13102 15.5376 5.55311 15.4565 5.28277C14.9237 3.48805 14.3889 2.95631 14.5312 0.928383L14.5713 0.352539L24.604 7.45893C24.8954 7.66522 25.1118 7.9337 25.23 8.27211C25.4743 8.97222 25.2269 9.79541 24.9956 10.4674C24.8323 10.9401 24.5019 11.7192 24.5019 12.2079V13.563Z" fill="white"/>
<path d="M24.1785 13.8522C25.0458 13.9113 25.7789 14.3168 26.4509 14.9167L26.8575 15.2803L26.4508 15.6428C25.7789 16.2437 25.0458 16.6493 24.1785 16.7074V18.3528C24.1785 19.6036 25.883 21.8239 24.4178 22.8374L14.8548 29.6094C14.7116 27.5584 15.2193 27.2229 15.7692 25.3701C15.8803 24.9966 15.6549 24.4117 15.5278 24.0602C15.2824 23.3802 15.037 22.7222 15.037 21.9872V19.107L10.3572 22.4248L10.0858 21.9762C7.68625 18.0003 7.68625 12.5603 10.0858 8.58439L10.3572 8.13478L15.037 11.4537V8.57349C15.037 7.83733 15.2824 7.18034 15.5278 6.50037C15.6549 6.1488 15.8803 5.56293 15.7692 5.18945C15.2194 3.33775 14.7116 3.00219 14.8548 0.951172L24.4178 7.72318C25.883 8.73666 24.1785 10.9569 24.1785 12.2077V13.8522Z" fill="white"/>
<path d="M15.5227 8.5737C15.5227 7.22377 16.5192 6.00892 16.2347 5.05154C15.9032 3.93384 15.4235 3.17774 15.2612 1.97998L24.1403 8.12408C25.2089 8.86309 23.6907 10.9242 23.6907 12.2071V14.3432C24.6751 14.2551 25.4432 14.6697 26.1263 15.2806C25.4433 15.8905 24.6751 16.3052 23.6907 16.2169V18.3531C23.6907 19.636 25.2089 21.697 24.1403 22.4372L15.2613 28.5812C15.4235 27.3824 15.9032 26.6273 16.2348 25.5086C16.5192 24.5513 15.5226 23.3365 15.5226 21.9875V18.1648L10.5023 21.7251C8.19586 17.9034 8.19586 12.6577 10.5023 8.8351L15.5227 12.3954V8.5737Z" fill="black"/>
<path d="M22.1485 7.62519C20.2367 6.58175 18.416 5.47211 16.8628 4.00293C17.2192 5.67241 18.0544 6.97832 19.4135 8.06891C19.6849 8.2862 19.5648 8.70084 19.0439 8.62373C17.9553 8.46046 17.8121 7.53913 16.6413 7.3298V12.209C17.8121 11.9987 17.9553 11.0784 19.0439 10.9151C19.5647 10.837 19.6849 11.2516 19.4135 11.469C18.0895 12.5314 17.2623 13.7984 16.8918 15.4067L16.8628 15.3796L16.8807 15.4567L16.8628 15.5339L16.8917 15.5078C17.2623 17.1162 18.0895 18.3831 19.4134 19.4457C19.6849 19.663 19.5647 20.0786 19.0439 19.9994C17.9553 19.8373 17.8121 18.9159 16.6413 18.7066V23.5857C17.8121 23.3765 17.9553 22.4541 19.0439 22.2908C19.5647 22.2137 19.6849 22.6284 19.4135 22.8457C18.0544 23.9362 17.2192 25.2422 16.8628 26.9116C18.416 25.4434 20.2367 24.3328 22.1485 23.2904C22.6052 23.0399 22.6131 22.6394 22.0845 22.2197C21.9462 22.1106 21.9062 21.8993 22.1215 21.8502C22.7423 21.7069 23.0478 21.4707 23.2942 21.1461C23.0478 20.8217 22.7424 20.5853 22.1215 20.4421C21.9062 20.393 21.9462 20.1818 22.0845 20.0715C22.6131 19.653 22.6051 19.2513 22.1485 19.002C20.2697 17.9774 18.4811 16.8879 16.9449 15.4567C18.4801 14.0276 20.2697 12.9371 22.1485 11.9125C22.6052 11.6632 22.6131 11.2616 22.0845 10.843C21.9462 10.7328 21.9062 10.5215 22.1215 10.4725C22.7423 10.3302 23.0478 10.0929 23.2942 9.76942C23.0478 9.44496 22.7424 9.20851 22.1215 9.06538C21.9062 9.01529 21.9462 8.80507 22.0845 8.69485C22.6131 8.2752 22.6051 7.8745 22.1485 7.62519ZM22.2015 14.7127C22.5221 14.3201 22.7664 13.8314 22.7604 13.2866L19.0029 15.4328L22.7604 17.58C22.7664 17.0341 22.5221 16.5463 22.2015 16.1528C22.6362 15.9655 23.0348 15.7202 23.4043 15.4328C23.0348 15.1444 22.6361 14.9 22.2015 14.7127ZM15.4947 13.3136C13.5819 12.27 11.7612 11.1604 10.2089 9.69231C10.5645 11.3607 11.4007 12.6667 12.7587 13.7572C13.0301 13.9756 12.9069 14.4122 12.3891 14.3121C11.3005 14.1018 10.6747 13.1294 9.50391 13.0182V17.8965C10.6747 17.7972 11.3006 16.8058 12.3891 16.6035C12.9068 16.5072 13.0301 16.94 12.7587 17.1573C11.4007 18.2478 10.5644 19.5539 10.2089 21.2232C11.7612 19.7551 13.5819 18.6445 15.4947 17.601C15.9504 17.3516 15.9583 16.951 15.4296 16.5313C15.2914 16.4223 15.2513 16.2109 15.4667 16.1619C16.0875 16.0177 16.394 15.7813 16.6404 15.4567C16.394 15.1333 16.0876 14.8969 15.4667 14.7538C15.2513 14.7047 15.2914 14.4934 15.4296 14.3842C15.9584 13.9636 15.9504 13.563 15.4947 13.3136Z" fill="white"/>
<path d="M23.4394 36.2733C26.7273 35.2748 28.9746 33.2359 30.6431 30.7021H26.6231C26.1214 31.9409 25.0719 32.3265 23.5657 32.001C23.9702 33.0776 23.9001 34.9214 22.3088 35.3519C20.1656 35.9308 19.017 34.0381 20.0044 33.0485C20.6613 34.3124 21.791 33.6375 21.9111 32.7982C22.0585 31.7756 20.0124 31.1398 19.093 32.2123C18.1777 33.2789 17.9413 35.4681 20.5071 36.6459C22.0884 37.3719 23.1981 37.8887 23.8169 39.3308C24.1094 38.6317 24.2005 37.2236 23.4394 36.2733ZM15.023 37.7805H18.8757C17.8833 37.2177 17.4746 36.6548 16.9489 35.7285C16.4241 36.6548 16.0155 37.2177 15.023 37.7805ZM15.5668 30.7021H18.3319C17.6189 31.0937 17.3265 31.4853 16.9489 32.1262C16.5723 31.4853 16.2789 31.0937 15.5668 30.7021ZM10.5834 36.2734C7.29459 35.2748 5.0474 33.2359 3.37891 30.7021H7.39979C7.90059 31.9409 8.95011 32.3265 10.4573 32.001C10.0527 33.0776 10.1218 34.9214 11.7142 35.3519C13.8574 35.9308 15.006 34.0381 14.0176 33.0485C13.3616 34.3124 12.2309 33.6375 12.1108 32.7982C11.9635 31.7756 14.0096 31.1398 14.9289 32.2123C15.8442 33.2789 16.0806 35.4681 13.5158 36.6459C11.9345 37.3719 10.8238 37.8887 10.2059 39.3308C9.9125 38.6317 9.82124 37.2237 10.5834 36.2734Z" fill="white"/>
<path d="M37.1495 12.8892H87.1801V13.3558H37.1495V12.8892ZM37.1495 24.0937H87.1801V24.5603H37.1495V24.0937ZM37.3706 21.2811C37.3516 21.4614 37.3335 21.6166 37.3125 21.7518C37.2976 21.8656 37.2755 21.9783 37.2464 22.0893C37.2284 22.1824 37.1963 22.2946 37.1553 22.4288C37.1044 22.5855 37.0519 22.7417 36.998 22.8975L37.4827 23.1218C37.6103 23.1832 37.7434 23.2321 37.8804 23.268C38.0215 23.3061 38.1667 23.3411 38.3159 23.3702C38.4772 23.4012 38.6384 23.4232 38.7967 23.4363C38.9559 23.4503 39.1111 23.4573 39.2604 23.4573C39.7331 23.4573 40.1557 23.3933 40.5333 23.264C40.9098 23.1358 41.2433 22.9476 41.5367 22.6991C41.8592 22.4057 42.1035 22.0793 42.2698 21.7188C42.4351 21.3563 42.5182 20.9577 42.5182 20.523C42.5182 20.3797 42.5082 20.2426 42.4891 20.1084C42.4682 19.9706 42.4364 19.8346 42.394 19.7017C42.3499 19.5596 42.2988 19.4264 42.2358 19.3022C42.1756 19.18 42.1085 19.0678 42.0335 18.9687C41.8903 18.7885 41.6789 18.6032 41.3975 18.4109C41.1131 18.2206 40.7596 18.0153 40.3299 17.7999C40.1468 17.7048 39.9645 17.608 39.7832 17.5096C39.6225 17.4211 39.4648 17.3272 39.3105 17.2281C39.0861 17.0849 38.9189 16.9226 38.8067 16.7384C38.6945 16.5561 38.6384 16.3508 38.6384 16.1215C38.6325 15.9402 38.6655 15.779 38.7367 15.6338C38.8067 15.4886 38.9129 15.3624 39.0491 15.2512C39.1742 15.1451 39.3105 15.069 39.4636 15.0229C39.6168 14.9757 39.7891 14.9508 39.9825 14.9527C40.1497 14.9527 40.3139 14.9728 40.4712 15.0189C40.6284 15.065 40.7777 15.133 40.9148 15.2261C41.014 15.2822 41.1111 15.3794 41.2042 15.5156C41.2974 15.6529 41.3865 15.82 41.4737 16.0213H41.71C41.754 15.8661 41.7891 15.7289 41.8151 15.6137C41.8432 15.4946 41.8662 15.3995 41.8843 15.3253L42.1206 14.7164L41.7971 14.5172C41.5329 14.3824 41.2531 14.2807 40.9639 14.2146C40.6755 14.1506 40.3731 14.1195 40.0565 14.1195C39.6459 14.1255 39.2714 14.1837 38.9288 14.2958C38.5894 14.407 38.2849 14.5732 38.0175 14.7906C37.8493 14.9257 37.7061 15.0709 37.5859 15.2261C37.4663 15.3821 37.3686 15.5536 37.2955 15.736C37.2284 15.8972 37.1763 16.0734 37.1383 16.2657C37.1016 16.4723 37.0835 16.6818 37.0842 16.8917C37.0842 17.0658 37.0972 17.2341 37.1202 17.3934C37.1429 17.5475 37.1768 17.6998 37.2214 17.8491C37.4206 18.4089 37.8432 18.8685 38.4892 19.2301L39.3105 19.6767C39.4657 19.7578 39.6169 19.839 39.7662 19.9221C39.9113 20.0012 40.0536 20.0854 40.1928 20.1745C40.4482 20.3366 40.6404 20.51 40.7696 20.6992C40.8998 20.8856 40.9639 21.0878 40.9639 21.3061C40.9639 21.5055 40.9229 21.6917 40.8377 21.863C40.7546 22.0332 40.6343 22.1884 40.4791 22.3257C40.355 22.4249 40.1998 22.4999 40.0174 22.5489C39.8322 22.599 39.6209 22.6241 39.3856 22.6241C38.969 22.6301 38.6184 22.5219 38.3321 22.2986C38.0486 22.0743 37.8313 21.7348 37.6811 21.2811H37.3706ZM43.053 22.3507L42.5803 23.295L43.2893 23.271L43.9602 23.295L44.2217 22.3877C44.2831 22.1962 44.3452 22.0049 44.408 21.8139C44.4678 21.631 44.5302 21.4491 44.5952 21.2681L44.8065 20.7092L45.4774 20.6342C45.5837 20.6221 45.7068 20.6161 45.85 20.6121C45.9933 20.6091 46.1556 20.6091 46.3358 20.6091C46.518 20.6091 46.6833 20.6121 46.8326 20.6182C46.9838 20.6221 47.1129 20.6282 47.2181 20.6342L47.9141 20.7092L48.1004 21.2811L48.512 22.4128L48.7723 23.295L49.867 23.271L51.1228 23.295L50.6501 22.3257C49.8921 20.7092 49.1209 18.8685 48.3377 16.8045L47.7279 15.1521L47.4044 14.2687L46.8326 14.3058L46.3728 14.2687L46.0614 15.1521L45.4155 16.8295C44.9989 17.8681 44.5952 18.8446 44.2006 19.7619C43.831 20.6305 43.4484 21.4935 43.053 22.3507ZM45.2042 19.6768L45.4154 19.1679L46.0494 17.5636L46.3608 16.8175L46.6583 17.5636L47.3052 19.1679L47.5166 19.6768L47.0939 19.7389C46.9948 19.7518 46.8905 19.7578 46.7835 19.7599C46.6753 19.7638 46.5591 19.7638 46.4349 19.7638C46.1485 19.7638 45.8872 19.7518 45.6518 19.7268L45.2042 19.6767V19.6768ZM52.3156 23.271L52.9496 23.295L52.9746 22.4999C52.9876 22.2004 53.0086 21.8659 53.0387 21.4924C53.0687 21.1198 53.1058 20.7092 53.1488 20.2616L53.3482 18.4459L53.4723 17.3893L53.9951 18.4089L54.666 19.8018L55.4862 21.5054C55.6054 21.7538 55.7106 21.9752 55.8037 22.1704C55.8861 22.3416 55.9669 22.5135 56.0461 22.6862L56.2944 23.295L56.5558 23.271L56.8293 23.295L57.2399 22.3137C57.383 21.983 57.5309 21.6545 57.6835 21.3282C57.888 20.8899 58.1007 20.4555 58.3215 20.0252L59.1296 18.4589L59.6644 17.3513L59.7636 18.4219L59.9748 20.2245C59.9879 20.3618 60.0099 20.6161 60.0399 20.9908C60.069 21.3683 60.1061 21.866 60.1491 22.4869L60.1992 23.295L61.3549 23.271L62.4005 23.295L62.1881 22.1394C62.0872 21.584 61.9947 21.0271 61.9107 20.4689C61.8176 19.863 61.7285 19.2111 61.6413 18.508C61.5542 17.8681 61.48 17.2732 61.415 16.7204C61.3539 16.1686 61.2988 15.6529 61.2558 15.1761L61.1566 14.2687L60.6468 14.3058L60.1241 14.2687L59.7386 15.2012C59.6104 15.4875 59.4531 15.8251 59.2688 16.2166C59.0582 16.664 58.8418 17.1087 58.6199 17.5506L57.5513 19.6277L57.0776 20.498L56.6059 19.5906C56.435 19.2694 56.2684 18.9458 56.1062 18.6201C55.9271 18.2624 55.7539 17.9018 55.5864 17.5385L54.6781 15.6118L54.0812 14.2687L53.5844 14.3058L53.0377 14.2687L52.9004 15.4625L52.5149 18.471L52.2916 20.0624C52.2305 20.4248 52.1717 20.7877 52.1153 21.1509C52.0532 21.5525 51.9781 21.9891 51.893 22.4618L51.7318 23.295L52.3156 23.271ZM63.9788 14.3058L62.9723 14.2687L63.0344 14.8156C63.0464 14.9838 63.0564 15.1841 63.0635 15.4185C63.0694 15.6508 63.0714 15.9142 63.0714 16.2056V21.0718C63.0654 21.3729 63.0611 21.674 63.0585 21.9752C63.0565 22.2245 63.0524 22.4207 63.0464 22.562L62.9723 23.295L64.0038 23.271L65.0723 23.295L65.0232 22.574C64.9983 22.1653 64.9863 21.6687 64.9863 21.0848L64.9742 19.5836V19.0618L65.3098 19.5836C65.502 19.88 65.6723 20.1514 65.8185 20.3988C65.9558 20.6248 66.0887 20.8535 66.2171 21.0848L67.0503 22.574L67.4479 23.295L68.5796 23.271L69.8604 23.295L69.3376 22.599C69.0452 22.1784 68.7388 21.7117 68.4152 21.202C68.071 20.6559 67.7361 20.104 67.4108 19.5465L67.0123 18.8375C67.2866 18.7694 67.5231 18.6993 67.7173 18.6242C67.9116 18.5491 68.0637 18.471 68.169 18.3898C68.3453 18.2772 68.5009 18.1349 68.6287 17.9692C68.7558 17.808 68.8589 17.6217 68.9401 17.4103C68.9951 17.2692 69.0332 17.124 69.0552 16.9767C69.0783 16.8295 69.0893 16.6763 69.0893 16.517C69.0833 16.1565 69.0142 15.8351 68.882 15.5536C68.7518 15.2693 68.5545 15.0189 68.2931 14.8035C68.0758 14.6293 67.8144 14.4961 67.5079 14.406C67.1985 14.3148 66.845 14.2687 66.4404 14.2687L65.2717 14.2938L63.9788 14.3058ZM64.9742 18.5271V15.114L65.4459 15.0769C65.9497 15.0769 66.3292 15.2031 66.5816 15.4576C66.837 15.713 66.9631 16.0944 66.9631 16.6032C66.9582 16.8586 66.9261 17.093 66.864 17.3083C66.8039 17.5256 66.7088 17.7209 66.5776 17.8951C66.4214 18.1044 66.2481 18.2636 66.0549 18.3719C65.8625 18.477 65.6512 18.533 65.4209 18.5391L64.9742 18.5271ZM72.5584 14.8276L72.5954 14.2687L71.5259 14.3058L70.4814 14.2687L70.5315 14.7906L70.5685 15.7229L70.5805 17.3393V19.4785C70.5805 19.8079 70.5915 20.1064 70.6125 20.3718C70.6325 20.6392 70.6686 20.8705 70.7176 21.0697C70.7738 21.3371 70.8669 21.5835 71.0011 21.8079C71.1343 22.0332 71.3086 22.2385 71.5259 22.4248C71.8985 22.7663 72.3341 23.0216 72.8298 23.192C73.3265 23.3592 73.8824 23.4442 74.4972 23.4442C74.7656 23.4442 75.0241 23.4282 75.2744 23.3941C75.5253 23.362 75.7729 23.3081 76.0145 23.233C76.2759 23.1519 76.5162 23.0527 76.7355 22.9324C76.954 22.8115 77.1583 22.6664 77.3445 22.4999C77.6369 22.2505 77.8713 21.923 78.0455 21.5144C78.2197 21.1068 78.3329 20.6161 78.389 20.0373C78.414 19.876 78.4331 19.5656 78.4471 19.1079C78.4601 18.6472 78.4701 18.0423 78.4772 17.2902L78.5011 15.7109L78.5262 14.8276L78.5753 14.2687L77.9544 14.3058L77.2704 14.2687L77.3205 14.8406L77.3444 15.7109L77.3695 17.2772V18.9557C77.3575 19.4964 77.3145 19.9672 77.2373 20.3647C77.1632 20.7653 77.053 21.0948 76.9099 21.3562C76.7065 21.7348 76.4372 22.0142 76.1037 22.1994C75.7702 22.3837 75.3686 22.4749 74.8959 22.4749C74.4502 22.4689 74.0687 22.3937 73.7521 22.2465C73.4367 22.0993 73.1803 21.878 72.981 21.5795C72.8907 21.4373 72.8142 21.2867 72.7527 21.1299C72.6874 20.9541 72.643 20.7712 72.6205 20.5851C72.5764 20.3367 72.5434 20.0773 72.5183 19.8079C72.4945 19.5245 72.4828 19.2401 72.4833 18.9557L72.4953 17.3513L72.5334 15.7229L72.5584 14.8276ZM81.2982 14.3058L80.2547 14.2687L80.2918 14.9778L80.3168 15.9843L80.3418 17.5256L80.3289 20.0993L80.3168 21.3803L80.2918 22.5119L80.2547 23.295L81.3493 23.271L82.3558 23.295L82.2937 22.4999C82.2747 22.3316 82.2627 22.1514 82.2546 21.959C82.2477 21.7538 82.2441 21.5485 82.2436 21.3431V20.0994L82.2557 19.23L82.8285 20.0994L83.6237 21.3432C83.81 21.6226 83.9702 21.868 84.1004 22.0793C84.2098 22.2508 84.3163 22.424 84.4199 22.599L84.8174 23.295L86.1104 23.271L87.3662 23.295L86.8324 22.586L85.9121 21.2431L84.5191 19.2171L83.7609 18.0363L84.2336 17.4765L85.4764 16.0965L86.4588 15.0399L87.217 14.2687L86.3347 14.3058L85.5014 14.2687L85.0037 15.0019C84.8735 15.1951 84.7123 15.4125 84.521 15.6568C84.3041 15.9303 84.0838 16.2011 83.8601 16.469L83.0268 17.5005L82.2436 18.3719V17.4765L82.2937 15.9963L82.3057 14.9899L82.3558 14.2688L81.2982 14.3058Z" fill="white"/>
<path d="M37.7285 25.2005L37.2207 25.1824L37.2388 25.5269L37.2508 26.0166L37.2638 26.7667L37.2568 28.0175L37.2509 28.6404L37.2388 29.1902L37.2207 29.5708L37.7525 29.5588L38.2432 29.5708L38.2122 29.1842C38.203 29.097 38.1966 29.0096 38.1932 28.9219C38.1899 28.8221 38.1883 28.7222 38.1882 28.6223V28.0175L38.1941 27.5939L38.4726 28.0175L38.8591 28.6224C38.9503 28.7586 39.0274 28.8769 39.0905 28.98C39.1439 29.0634 39.1956 29.1479 39.2457 29.2333L39.439 29.5708L40.0679 29.5588L40.6789 29.5708L40.4185 29.2263L39.9707 28.5733L39.2948 27.5879L38.9262 27.0141L39.1556 26.7417L39.7605 26.0707L40.2382 25.557L40.6067 25.1824L40.1771 25.2004L39.7724 25.1824L39.5302 25.5389C39.467 25.633 39.3879 25.7382 39.2958 25.8574C39.1899 25.9903 39.0828 26.1221 38.9744 26.253L38.5687 26.7536L38.1882 27.1773V26.7417L38.2122 26.0226L38.2182 25.5329L38.2432 25.1824L37.7285 25.2005ZM46.0618 29.1111L45.8324 29.5709L46.1769 29.5588L46.5035 29.5708L46.6306 29.1302C46.6606 29.036 46.6907 28.9429 46.7217 28.8507C46.7508 28.7586 46.7819 28.6705 46.8119 28.5854L46.9151 28.314L47.2415 28.277C47.2926 28.271 47.3527 28.2679 47.4227 28.2669C47.4919 28.265 47.5711 28.265 47.6581 28.265C47.7473 28.265 47.8273 28.2669 47.9004 28.2699C47.9736 28.2709 48.0357 28.2739 48.0878 28.277L48.4263 28.314L48.5164 28.5924L48.7168 29.1422L48.8439 29.5708L49.3756 29.5588L49.9866 29.5708L49.7562 29.0992C49.3877 28.314 49.0131 27.4187 48.6316 26.4151L48.3351 25.611L48.1779 25.1824L47.9004 25.2004L47.6762 25.1824L47.5249 25.611L47.2105 26.4272C47.0201 26.9051 46.8234 27.3805 46.6206 27.8533C46.441 28.2755 46.2547 28.6949 46.0618 29.1111ZM47.1083 27.8112L47.2104 27.5639L47.5189 26.7847L47.6702 26.4212L47.8154 26.7847L48.1298 27.5639L48.233 27.8112L48.0267 27.8423C47.9785 27.8483 47.9284 27.8513 47.8764 27.8523C47.8233 27.8543 47.7673 27.8543 47.7072 27.8543C47.5798 27.8548 47.4524 27.8488 47.3256 27.8363L47.1083 27.8112ZM57.2492 25.599H57.5518L57.2733 26.1067L56.7415 27.0441L56.0705 28.1868C55.9592 28.3768 55.846 28.5657 55.731 28.7536C55.6279 28.9189 55.5357 29.061 55.4536 29.1782L55.2543 29.4687L55.3214 29.6079L55.9373 29.5648C56.0371 29.5612 56.1369 29.5596 56.2367 29.5599C56.3609 29.5589 56.5091 29.5589 56.6814 29.5589C57.086 29.5618 57.4315 29.5648 57.719 29.5698C58.0053 29.5727 58.2317 29.5769 58.3979 29.5829L58.8215 29.6079L58.8035 29.3174L58.8215 28.997C58.7244 29.018 58.6393 29.0371 58.5681 29.053C58.4961 29.0701 58.438 29.0821 58.392 29.0871C58.3138 29.1021 58.2156 29.1142 58.0975 29.1212C57.9813 29.1281 57.8451 29.1332 57.6909 29.1362C57.5396 29.1422 57.4005 29.1472 57.2723 29.1502C57.142 29.1532 57.0229 29.1542 56.9108 29.1542L56.6023 29.1483L56.8686 28.6525L57.4005 27.7211L58.0053 26.6815L58.6153 25.6841L58.8576 25.2906L58.8035 25.1523L58.1265 25.1763C57.7029 25.1884 57.2733 25.1944 56.8387 25.1944C56.4451 25.2004 56.1306 25.1944 55.8953 25.1763L55.5207 25.1523L55.5327 25.3816L55.5207 25.654L55.8832 25.636L56.6022 25.611L57.2492 25.599ZM64.8574 25.2004L64.2045 25.1824L64.4098 25.5148C64.475 25.6196 64.5391 25.7251 64.6021 25.8313C64.6591 25.9295 64.7122 26.0226 64.7612 26.1067L65.3472 27.2373L65.6256 27.7511V28.6525L65.6076 29.1842L65.5835 29.5708L66.1022 29.5588L66.605 29.5708L66.5679 29.2023C66.5559 29.051 66.5499 28.8337 66.5499 28.5494C66.5499 28.4442 66.5519 28.3531 66.5548 28.276C66.5559 28.1989 66.559 28.1357 66.5619 28.0846L66.605 27.7511L66.8584 27.1953L67.4332 26.0706C67.5083 25.9194 67.5704 25.7963 67.6205 25.7001C67.6696 25.605 67.7076 25.5389 67.7357 25.5028L67.9349 25.1824L67.5904 25.2004L67.252 25.1824L67.1368 25.4909C67.0977 25.5989 67.0587 25.7011 67.0226 25.7964C66.9893 25.883 66.9529 25.9685 66.9135 26.0527C66.8704 26.1529 66.8243 26.258 66.7732 26.3711C66.7176 26.4908 66.6615 26.6103 66.605 26.7297L66.3566 27.2254L66.1093 26.7417C66.0487 26.6269 65.9902 26.5111 65.934 26.3941C65.8842 26.2919 65.8378 26.188 65.7948 26.0827C65.7437 25.9746 65.6966 25.8693 65.6546 25.7702C65.6126 25.672 65.5735 25.578 65.5404 25.4909L65.4253 25.1824L64.8574 25.2004ZM73.6754 29.3174L73.6634 29.5709L73.9468 29.5588L74.2071 29.5708L74.1891 29.3114C74.1762 29.0992 74.1702 28.7907 74.1702 28.3861L74.1581 27.4427L74.1641 26.7787L74.1762 26.5243L74.5036 26.8809L75.2467 27.6851C75.5792 28.0356 75.8507 28.332 76.063 28.5733C76.1662 28.6909 76.2687 28.8091 76.3704 28.9279C76.459 29.0319 76.5458 29.1373 76.6307 29.2443L76.8852 29.5708L77.1936 29.5588L77.472 29.5708L77.4589 29.2384V28.5854L77.465 27.3896L77.484 26.1248L77.5081 25.4538V25.1824L77.2357 25.2004L76.9692 25.1824L76.9813 25.5088L76.9993 26.2099L77.0244 26.996L77.0363 27.6971L77.0484 28.2529L76.7279 27.9274C76.612 27.8079 76.4975 27.6871 76.3844 27.565C76.2576 27.4289 76.1321 27.2917 76.0078 27.1534L75.2768 26.3551C75.1135 26.1739 74.9753 26.0176 74.8592 25.8874C74.7672 25.7826 74.6767 25.6764 74.5878 25.569L74.2913 25.1824L73.9769 25.2004L73.6634 25.1824L73.6814 25.5869L73.7105 26.2159L73.7164 27.2373L73.7045 28.3921C73.6966 28.5646 73.6905 28.7371 73.6864 28.9098C73.6815 29.064 73.6784 29.1993 73.6754 29.3174ZM83.4349 29.1111L83.2055 29.5709L83.55 29.5588L83.8764 29.5708L84.0036 29.1302C84.0337 29.036 84.0638 28.9429 84.0948 28.8507C84.1248 28.7586 84.1548 28.6705 84.1849 28.5854L84.287 28.314L84.6135 28.277C84.6655 28.271 84.7257 28.2679 84.7958 28.2669C84.8648 28.265 84.944 28.265 85.0312 28.265C85.1193 28.265 85.2004 28.2669 85.2735 28.2699C85.3466 28.2709 85.4097 28.2739 85.4607 28.277L85.7992 28.314L85.8894 28.5924L86.0897 29.1422L86.2159 29.5708L86.7477 29.5588L87.3586 29.5708L87.1292 29.0992C86.7607 28.314 86.3851 27.4187 86.0046 26.4151L85.7092 25.611L85.5509 25.1824L85.2735 25.2004L85.0491 25.1824L84.8979 25.611L84.5835 26.4272C84.3926 26.9049 84.196 27.3803 83.9936 27.8533C83.8132 28.2751 83.627 28.6945 83.4349 29.1111ZM84.4813 27.8112L84.5835 27.5639L84.892 26.7847L85.0432 26.4212L85.1883 26.7847L85.5029 27.5639L85.605 27.8112L85.4007 27.8423C85.3516 27.8483 85.3015 27.8513 85.2494 27.8523C85.1964 27.8543 85.1403 27.8543 85.0792 27.8543C84.941 27.8543 84.8138 27.8484 84.6986 27.8363L84.4813 27.8112Z" fill="white"/>
</g>
</g>
</g>
<defs>
<clipPath id="clip0_566_159">
<rect width="88.41" height="40" fill="white"/>
</clipPath>
<clipPath id="clip1_566_159">
<rect width="88.41" height="40" fill="white"/>
</clipPath>
<clipPath id="clip2_566_159">
<rect width="88.41" height="39.9967" fill="white" transform="translate(0 0.00146484)"/>
</clipPath>
</defs>
</svg>
