<svg width="153" height="97" viewBox="0 0 153 97" fill="none" xmlns="http://www.w3.org/2000/svg">
<path d="M5.95996 31.4655L11.6052 30.9719C11.8726 33.2342 12.4896 35.0954 13.4562 36.5555C14.4433 37.9951 15.9652 39.1674 18.0217 40.0723C20.0783 40.9566 22.392 41.3987 24.9627 41.3987C27.2455 41.3987 29.2609 41.0594 31.009 40.3807C32.7571 39.7021 34.0527 38.7766 34.8959 37.6044C35.7597 36.4116 36.1915 35.1159 36.1915 33.7174C36.1915 32.2984 35.7802 31.0645 34.9576 30.0156C34.135 28.9462 32.7776 28.0516 30.8856 27.3318C29.6722 26.8588 26.9884 26.1287 22.8341 25.1416C18.6798 24.1338 15.7698 23.1878 14.104 22.3035C11.9446 21.1724 10.3302 19.7739 9.26075 18.1081C8.2119 16.4217 7.68748 14.5399 7.68748 12.4628C7.68748 10.18 8.3353 8.05147 9.63094 6.07716C10.9266 4.08229 12.8186 2.57071 15.3071 1.54243C17.7955 0.514142 20.5616 0 23.6053 0C26.9575 0 29.9087 0.544991 32.4589 1.63497C35.0296 2.70439 37.0039 4.28795 38.3818 6.38565C39.7597 8.48335 40.5 10.8587 40.6029 13.5117L34.865 13.9435C34.5566 11.0849 33.5077 8.92551 31.7185 7.46535C29.9498 6.00518 27.3277 5.2751 23.8521 5.2751C20.2326 5.2751 17.5899 5.94348 15.924 7.28025C14.2788 8.59646 13.4562 10.1903 13.4562 12.0618C13.4562 13.6865 14.0423 15.0232 15.2145 16.0721C16.3662 17.1209 19.3688 18.2006 24.2223 19.3112C29.0964 20.4012 32.4383 21.3575 34.2481 22.1801C36.8805 23.3935 38.8239 24.9359 40.0784 26.8074C41.333 28.6583 41.9602 30.7971 41.9602 33.2239C41.9602 35.6301 41.2713 37.9026 39.8934 40.0414C38.5155 42.1597 36.5309 43.8152 33.9396 45.008C31.3689 46.1803 28.4691 46.7664 25.2403 46.7664C21.1477 46.7664 17.7133 46.17 14.9369 44.9772C12.1811 43.7844 10.0114 41.9951 8.42784 39.6095C6.86485 37.2033 6.04222 34.4887 5.95996 31.4655Z" fill="#8C7961"/>
<path d="M49.8883 45.9952V0.771213H55.8729V23.1981L78.3306 0.771213H86.4438L67.472 19.0952L87.2767 45.9952H79.3795L63.2766 23.1056L55.8729 30.3241V45.9952H49.8883Z" fill="#8C7961"/>
<path d="M87.3076 45.9952L104.675 0.771213H111.123L129.632 45.9952H122.814L117.539 32.2984H98.629L93.6624 45.9952H87.3076ZM100.357 27.4243H115.688L110.968 14.8998C109.529 11.0952 108.459 7.9692 107.76 5.52189C107.184 8.42165 106.372 11.3008 105.323 14.1595L100.357 27.4243Z" fill="#002845"/>
<path d="M135.431 45.9952V0.771213H141.416V45.9952H135.431Z" fill="#002845"/>
<path d="M15.8387 66.0692L17.3912 65.9335C17.4647 66.5556 17.6344 67.0674 17.9002 67.469C18.1717 67.8649 18.5902 68.1872 19.1558 68.4361C19.7213 68.6793 20.3576 68.8009 21.0645 68.8009C21.6923 68.8009 22.2466 68.7076 22.7273 68.5209C23.208 68.3343 23.5644 68.0798 23.7962 67.7574C24.0338 67.4294 24.1525 67.0731 24.1525 66.6885C24.1525 66.2982 24.0394 65.9589 23.8132 65.6705C23.587 65.3764 23.2137 65.1303 22.6934 64.9324C22.3597 64.8023 21.6216 64.6015 20.4792 64.3301C19.3367 64.0529 18.5365 63.7928 18.0784 63.5496C17.4845 63.2385 17.0405 62.8539 16.7464 62.3958C16.458 61.9321 16.3138 61.4146 16.3138 60.8434C16.3138 60.2156 16.4919 59.6302 16.8482 59.0873C17.2045 58.5387 17.7249 58.123 18.4092 57.8402C19.0935 57.5574 19.8542 57.416 20.6913 57.416C21.6131 57.416 22.4247 57.5659 23.126 57.8656C23.833 58.1597 24.3759 58.5952 24.7549 59.1721C25.1338 59.749 25.3374 60.4022 25.3657 61.1318L23.7878 61.2506C23.7029 60.4644 23.4145 59.8706 22.9224 59.469C22.436 59.0675 21.7149 58.8667 20.7591 58.8667C19.7637 58.8667 19.037 59.0505 18.5789 59.4181C18.1264 59.7801 17.9002 60.2184 17.9002 60.7331C17.9002 61.1799 18.0614 61.5475 18.3838 61.8359C18.7005 62.1244 19.5262 62.4213 20.8609 62.7267C22.2013 63.0264 23.1204 63.2894 23.6181 63.5157C24.342 63.8493 24.8765 64.2735 25.2215 64.7882C25.5665 65.2972 25.739 65.8854 25.739 66.5528C25.739 67.2145 25.5495 67.8394 25.1706 68.4276C24.7916 69.0101 24.2459 69.4654 23.5332 69.7934C22.8263 70.1158 22.0288 70.277 21.1409 70.277C20.0154 70.277 19.0709 70.113 18.3074 69.785C17.5495 69.4569 16.9529 68.9649 16.5174 68.3088C16.0876 67.6471 15.8613 66.9006 15.8387 66.0692Z" fill="#002845"/>
<path d="M33.671 68.9536C33.1055 69.4343 32.5597 69.7737 32.0337 69.9716C31.5134 70.1695 30.9535 70.2685 30.354 70.2685C29.3642 70.2685 28.6036 70.0282 28.0719 69.5474C27.5403 69.061 27.2745 68.4417 27.2745 67.6895C27.2745 67.2484 27.3734 66.8468 27.5714 66.4849C27.775 66.1173 28.038 65.8232 28.3604 65.6026C28.6884 65.382 29.056 65.2152 29.4632 65.1021C29.763 65.0229 30.2154 64.9465 30.8206 64.873C32.0535 64.726 32.9612 64.5506 33.5438 64.347C33.5494 64.1378 33.5523 64.0049 33.5523 63.9483C33.5523 63.3262 33.408 62.8879 33.1196 62.6334C32.7294 62.2884 32.1497 62.1159 31.3805 62.1159C30.6622 62.1159 30.1306 62.2431 29.7856 62.4976C29.4462 62.7465 29.1946 63.1905 29.0306 63.8295L27.5375 63.6259C27.6732 62.9869 27.8966 62.4722 28.2077 62.0819C28.5187 61.686 28.9683 61.3835 29.5565 61.1742C30.1447 60.9593 30.8262 60.8518 31.6011 60.8518C32.3702 60.8518 32.9952 60.9423 33.4759 61.1233C33.9566 61.3043 34.3101 61.5333 34.5364 61.8105C34.7626 62.0819 34.9209 62.4269 35.0114 62.8455C35.0623 63.1056 35.0878 63.575 35.0878 64.2537V66.2898C35.0878 67.7093 35.1189 68.6086 35.1811 68.9875C35.249 69.3608 35.379 69.7199 35.5713 70.0649H33.9764C33.8181 69.7482 33.7163 69.3778 33.671 68.9536ZM33.5438 65.5432C32.9895 65.7694 32.1581 65.9617 31.0496 66.1201C30.4219 66.2106 29.9779 66.3124 29.7177 66.4255C29.4576 66.5386 29.2568 66.7055 29.1154 66.926C28.974 67.1409 28.9033 67.3813 28.9033 67.6471C28.9033 68.0543 29.056 68.3937 29.3614 68.6651C29.6725 68.9366 30.1249 69.0724 30.7188 69.0724C31.307 69.0724 31.8301 68.9451 32.2882 68.6906C32.7463 68.4304 33.0828 68.077 33.2978 67.6302C33.4618 67.2852 33.5438 66.7761 33.5438 66.1031V65.5432Z" fill="#002845"/>
<path d="M37.4632 70.0649V61.0554H38.829V62.3195C39.1118 61.8783 39.4879 61.5249 39.9573 61.259C40.4267 60.9876 40.9612 60.8518 41.5607 60.8518C42.2281 60.8518 42.7738 60.9904 43.198 61.2675C43.6278 61.5447 43.9304 61.9321 44.1057 62.4298C44.8184 61.3778 45.7459 60.8518 46.8883 60.8518C47.7819 60.8518 48.4691 61.1007 48.9498 61.5984C49.4306 62.0904 49.6709 62.8511 49.6709 63.8804V70.0649H48.1524V64.3895C48.1524 63.7786 48.1015 63.3403 47.9997 63.0745C47.9035 62.803 47.7254 62.5853 47.4652 62.4213C47.2051 62.2573 46.8996 62.1753 46.549 62.1753C45.9156 62.1753 45.3896 62.3873 44.9711 62.8115C44.5525 63.23 44.3433 63.9031 44.3433 64.8306V70.0649H42.8163V64.2113C42.8163 63.5326 42.6918 63.0236 42.443 62.6843C42.1941 62.3449 41.7869 62.1753 41.2214 62.1753C40.7915 62.1753 40.3928 62.2884 40.0252 62.5146C39.6632 62.7408 39.4002 63.0717 39.2362 63.5072C39.0722 63.9427 38.9902 64.5704 38.9902 65.3905V70.0649H37.4632Z" fill="#002845"/>
<path d="M51.9191 70.0649V61.0554H53.2934V62.4213C53.644 61.7822 53.9664 61.3608 54.2605 61.1572C54.5602 60.9536 54.8883 60.8518 55.2446 60.8518C55.7593 60.8518 56.2824 61.0158 56.814 61.3439L56.2881 62.7606C55.9148 62.5401 55.5415 62.4298 55.1682 62.4298C54.8345 62.4298 54.5348 62.5316 54.269 62.7352C54.0032 62.9331 53.8137 63.2102 53.7006 63.5666C53.5309 64.1095 53.4461 64.7033 53.4461 65.3481V70.0649H51.9191Z" fill="#002845"/>
<path d="M63.6263 70.0649V68.7415C62.925 69.7595 61.972 70.2685 60.7673 70.2685C60.2357 70.2685 59.738 70.1667 59.2743 69.9631C58.8161 69.7595 58.474 69.505 58.2477 69.1996C58.0272 68.8885 57.8716 68.5096 57.7812 68.0628C57.7189 67.7631 57.6878 67.288 57.6878 66.6376V61.0554H59.2149V66.0522C59.2149 66.8497 59.246 67.387 59.3082 67.6641C59.4043 68.0656 59.6079 68.3824 59.919 68.6142C60.2301 68.8405 60.6146 68.9536 61.0728 68.9536C61.5309 68.9536 61.9607 68.8376 62.3622 68.6058C62.7638 68.3682 63.0466 68.0487 63.2106 67.6471C63.3803 67.2399 63.4651 66.6517 63.4651 65.8826V61.0554H64.9921V70.0649H63.6263Z" fill="#002845"/>
<path d="M67.4015 70.0649V57.6281H68.9285V64.7203L72.5424 61.0554H74.5191L71.0748 64.3979L74.8669 70.0649H72.9836L70.0059 65.4584L68.9285 66.4934V70.0649H67.4015Z" fill="#002845"/>
<path d="M75.4862 66.3322V64.7967H80.1776V66.3322H75.4862Z" fill="#002845"/>
<path d="M81.9931 70.0649V57.6281H83.6389V63.7956L89.8149 57.6281H92.046L86.8287 62.6673L92.2751 70.0649H90.1033L85.6749 63.7702L83.6389 65.7553V70.0649H81.9931Z" fill="#002845"/>
<path d="M99.3334 68.9536C98.7678 69.4343 98.222 69.7737 97.6961 69.9716C97.1757 70.1695 96.6158 70.2685 96.0163 70.2685C95.0266 70.2685 94.2659 70.0282 93.7343 69.5474C93.2026 69.061 92.9368 68.4417 92.9368 67.6895C92.9368 67.2484 93.0358 66.8468 93.2337 66.4849C93.4373 66.1173 93.7003 65.8232 94.0227 65.6026C94.3507 65.382 94.7183 65.2152 95.1255 65.1021C95.4253 65.0229 95.8778 64.9465 96.4829 64.873C97.7158 64.726 98.6236 64.5506 99.2061 64.347C99.2118 64.1378 99.2146 64.0049 99.2146 63.9483C99.2146 63.3262 99.0704 62.8879 98.7819 62.6334C98.3917 62.2884 97.812 62.1159 97.0428 62.1159C96.3246 62.1159 95.7929 62.2431 95.4479 62.4976C95.1086 62.7465 94.8569 63.1905 94.6929 63.8295L93.1998 63.6259C93.3355 62.9869 93.5589 62.4722 93.87 62.0819C94.1811 61.686 94.6307 61.3835 95.2189 61.1742C95.8071 60.9593 96.4886 60.8518 97.2634 60.8518C98.0326 60.8518 98.6575 60.9423 99.1382 61.1233C99.619 61.3043 99.9725 61.5333 100.199 61.8105C100.425 62.0819 100.583 62.4269 100.674 62.8455C100.725 63.1056 100.75 63.575 100.75 64.2537V66.2898C100.75 67.7093 100.781 68.6086 100.843 68.9875C100.911 69.3608 101.041 69.7199 101.234 70.0649H99.6388C99.4804 69.7482 99.3786 69.3778 99.3334 68.9536ZM99.2061 65.5432C98.6519 65.7694 97.8205 65.9617 96.712 66.1201C96.0842 66.2106 95.6402 66.3124 95.3801 66.4255C95.1199 66.5386 94.9191 66.7055 94.7777 66.926C94.6363 67.1409 94.5656 67.3813 94.5656 67.6471C94.5656 68.0543 94.7183 68.3937 95.0237 68.6651C95.3348 68.9366 95.7873 69.0724 96.3811 69.0724C96.9693 69.0724 97.4924 68.9451 97.9506 68.6906C98.4087 68.4304 98.7452 68.077 98.9601 67.6302C99.1241 67.2852 99.2061 66.7761 99.2061 66.1031V65.5432Z" fill="#002845"/>
<path d="M102.32 70.0649V68.8263L108.054 62.2431C107.404 62.2771 106.83 62.294 106.332 62.294H102.659V61.0554H110.023V62.065L105.145 67.7829L104.203 68.8263C104.887 68.7754 105.529 68.75 106.129 68.75H110.294V70.0649H102.32Z" fill="#002845"/>
<path d="M111.745 73.5347L111.575 72.101C111.909 72.1915 112.2 72.2367 112.449 72.2367C112.788 72.2367 113.06 72.1801 113.263 72.067C113.467 71.9539 113.634 71.7956 113.764 71.592C113.86 71.4392 114.015 71.0603 114.23 70.4552C114.259 70.3703 114.304 70.2459 114.366 70.0819L110.947 61.0554H112.593L114.468 66.2728C114.711 66.9345 114.929 67.6302 115.121 68.3597C115.297 67.6584 115.506 66.9741 115.749 66.3067L117.675 61.0554H119.202L115.774 70.2176C115.407 71.2074 115.121 71.8889 114.918 72.2621C114.646 72.7655 114.335 73.1331 113.984 73.365C113.634 73.6025 113.215 73.7213 112.729 73.7213C112.435 73.7213 112.107 73.6591 111.745 73.5347Z" fill="#002845"/>
<path d="M120.5 70.0649V61.0554H121.874V62.3364C122.536 61.3467 123.492 60.8518 124.741 60.8518C125.284 60.8518 125.782 60.9508 126.235 61.1488C126.693 61.3411 127.035 61.5956 127.261 61.9123C127.487 62.229 127.646 62.6051 127.736 63.0406C127.793 63.3234 127.821 63.8182 127.821 64.5252V70.0649H126.294V64.5846C126.294 63.9625 126.235 63.4987 126.116 63.1933C125.997 62.8822 125.785 62.6362 125.48 62.4552C125.18 62.2686 124.826 62.1753 124.419 62.1753C123.769 62.1753 123.206 62.3817 122.731 62.7946C122.261 63.2074 122.027 63.9907 122.027 65.1445V70.0649H120.5Z" fill="#002845"/>
<path d="M136.05 68.9536C135.484 69.4343 134.939 69.7737 134.413 69.9716C133.892 70.1695 133.332 70.2685 132.733 70.2685C131.743 70.2685 130.982 70.0282 130.451 69.5474C129.919 69.061 129.653 68.4417 129.653 67.6895C129.653 67.2484 129.752 66.8468 129.95 66.4849C130.154 66.1173 130.417 65.8232 130.739 65.6026C131.067 65.382 131.435 65.2152 131.842 65.1021C132.142 65.0229 132.594 64.9465 133.2 64.873C134.432 64.726 135.34 64.5506 135.923 64.347C135.928 64.1378 135.931 64.0049 135.931 63.9483C135.931 63.3262 135.787 62.8879 135.499 62.6334C135.108 62.2884 134.529 62.1159 133.759 62.1159C133.041 62.1159 132.51 62.2431 132.165 62.4976C131.825 62.7465 131.574 63.1905 131.41 63.8295L129.916 63.6259C130.052 62.9869 130.276 62.4722 130.587 62.0819C130.898 61.686 131.347 61.3835 131.935 61.1742C132.524 60.9593 133.205 60.8518 133.98 60.8518C134.749 60.8518 135.374 60.9423 135.855 61.1233C136.336 61.3043 136.689 61.5333 136.915 61.8105C137.142 62.0819 137.3 62.4269 137.39 62.8455C137.441 63.1056 137.467 63.575 137.467 64.2537V66.2898C137.467 67.7093 137.498 68.6086 137.56 68.9875C137.628 69.3608 137.758 69.7199 137.95 70.0649H136.355C136.197 69.7482 136.095 69.3778 136.05 68.9536ZM135.923 65.5432C135.368 65.7694 134.537 65.9617 133.429 66.1201C132.801 66.2106 132.357 66.3124 132.097 66.4255C131.837 66.5386 131.636 66.7055 131.494 66.926C131.353 67.1409 131.282 67.3813 131.282 67.6471C131.282 68.0543 131.435 68.3937 131.74 68.6651C132.051 68.9366 132.504 69.0724 133.098 69.0724C133.686 69.0724 134.209 68.9451 134.667 68.6906C135.125 68.4304 135.462 68.077 135.677 67.6302C135.841 67.2852 135.923 66.7761 135.923 66.1031V65.5432Z" fill="#002845"/>
<path d="M0 92.6304L4.77621 80.1935H6.54927L11.6394 92.6304H9.76451L8.31384 88.8637H3.11345L1.7476 92.6304H0ZM3.58852 87.5233H7.80483L6.50685 84.079C6.11095 83.0327 5.81686 82.173 5.62456 81.5C5.46621 82.2974 5.24281 83.0892 4.95437 83.8754L3.58852 87.5233Z" fill="#002845"/>
<path d="M12.7422 92.6304V83.6209H14.1166V84.9867C14.4672 84.3476 14.7896 83.9263 15.0837 83.7227C15.3834 83.5191 15.7115 83.4173 16.0678 83.4173C16.5824 83.4173 17.1056 83.5813 17.6372 83.9093L17.1112 85.3261C16.738 85.1055 16.3647 84.9952 15.9914 84.9952C15.6577 84.9952 15.358 85.097 15.0922 85.3006C14.8263 85.4986 14.6369 85.7757 14.5238 86.132C14.3541 86.6749 14.2693 87.2688 14.2693 87.9135V92.6304H12.7422Z" fill="#002845"/>
<path d="M21.879 91.2645L22.0995 92.6134C21.6697 92.7039 21.2851 92.7491 20.9458 92.7491C20.3915 92.7491 19.9617 92.6615 19.6563 92.4861C19.3509 92.3108 19.136 92.0818 19.0115 91.799C18.8871 91.5105 18.8249 90.9082 18.8249 89.992V84.8086H17.7051V83.6209H18.8249V81.3897L20.3434 80.4735V83.6209H21.879V84.8086H20.3434V90.0768C20.3434 90.5123 20.3689 90.7923 20.4198 90.9167C20.4764 91.0411 20.564 91.1401 20.6828 91.2136C20.8072 91.2871 20.9825 91.3239 21.2088 91.3239C21.3784 91.3239 21.6018 91.3041 21.879 91.2645Z" fill="#002845"/>
<path d="M23.389 81.9496V80.1935H24.9161V81.9496H23.389ZM23.389 92.6304V83.6209H24.9161V92.6304H23.389Z" fill="#002845"/>
<path d="M27.6138 92.6304V84.8086H26.2649V83.6209H27.6138V82.6622C27.6138 82.0571 27.6675 81.6075 27.775 81.3134C27.922 80.9175 28.1794 80.5979 28.547 80.3547C28.9203 80.1059 29.4406 79.9815 30.108 79.9815C30.5378 79.9815 31.0129 80.0324 31.5332 80.1342L31.3041 81.4661C30.9874 81.4095 30.6877 81.3812 30.4049 81.3812C29.9411 81.3812 29.6131 81.4802 29.4208 81.6782C29.2285 81.8761 29.1324 82.2465 29.1324 82.7895V83.6209H30.8884V84.8086H29.1324V92.6304H27.6138Z" fill="#002845"/>
<path d="M32.0931 81.9496V80.1935H33.6201V81.9496H32.0931ZM32.0931 92.6304V83.6209H33.6201V92.6304H32.0931Z" fill="#002845"/>
<path d="M41.8322 89.3303L43.3337 89.5254C43.1697 90.5604 42.7484 91.372 42.0697 91.9602C41.3967 92.5427 40.5681 92.834 39.584 92.834C38.3511 92.834 37.3585 92.4324 36.6063 91.6293C35.8598 90.8205 35.4865 89.664 35.4865 88.1595C35.4865 87.1868 35.6477 86.3356 35.9701 85.606C36.2924 84.8764 36.7817 84.3307 37.4377 83.9687C38.0994 83.6011 38.8177 83.4173 39.5925 83.4173C40.571 83.4173 41.3712 83.6661 41.9934 84.1638C42.6155 84.6559 43.0142 85.3572 43.1895 86.2677L41.7049 86.4968C41.5635 85.8916 41.3118 85.4363 40.9499 85.1309C40.5936 84.8255 40.1609 84.6728 39.6519 84.6728C38.8827 84.6728 38.2578 84.95 37.7771 85.5042C37.2963 86.0528 37.056 86.9238 37.056 88.1171C37.056 89.3274 37.2878 90.2069 37.7516 90.7555C38.2154 91.3041 38.8205 91.5784 39.5671 91.5784C40.1666 91.5784 40.6671 91.3946 41.0686 91.027C41.4702 90.6594 41.7247 90.0938 41.8322 89.3303Z" fill="#002845"/>
<path d="M44.6487 81.9496V80.1935H46.1757V81.9496H44.6487ZM44.6487 92.6304V83.6209H46.1757V92.6304H44.6487Z" fill="#002845"/>
<path d="M54.3878 91.519C53.8222 91.9997 53.2764 92.3391 52.7504 92.537C52.2301 92.735 51.6702 92.834 51.0707 92.834C50.081 92.834 49.3203 92.5936 48.7886 92.1129C48.257 91.6265 47.9912 91.0072 47.9912 90.255C47.9912 89.8138 48.0902 89.4123 48.2881 89.0503C48.4917 88.6827 48.7547 88.3886 49.0771 88.168C49.4051 87.9475 49.7727 87.7806 50.1799 87.6675C50.4797 87.5883 50.9321 87.512 51.5373 87.4385C52.7702 87.2914 53.678 87.1161 54.2605 86.9125C54.2662 86.7032 54.269 86.5703 54.269 86.5137C54.269 85.8916 54.1248 85.4533 53.8363 85.1988C53.4461 84.8538 52.8664 84.6813 52.0972 84.6813C51.3789 84.6813 50.8473 84.8086 50.5023 85.0631C50.163 85.3119 49.9113 85.7559 49.7473 86.395L48.2542 86.1914C48.3899 85.5523 48.6133 85.0376 48.9244 84.6474C49.2354 84.2515 49.6851 83.9489 50.2733 83.7396C50.8614 83.5247 51.543 83.4173 52.3178 83.4173C53.0869 83.4173 53.7119 83.5078 54.1926 83.6887C54.6734 83.8697 55.0268 84.0988 55.2531 84.3759C55.4793 84.6474 55.6377 84.9924 55.7281 85.4109C55.779 85.6711 55.8045 86.1405 55.8045 86.8192V88.8552C55.8045 90.2748 55.8356 91.174 55.8978 91.553C55.9657 91.9262 56.0958 92.2854 56.2881 92.6304H54.6932C54.5348 92.3136 54.433 91.9432 54.3878 91.519ZM54.2605 88.1086C53.7062 88.3349 52.8749 88.5272 51.7663 88.6855C51.1386 88.776 50.6946 88.8778 50.4344 88.9909C50.1743 89.104 49.9735 89.2709 49.8321 89.4915C49.6907 89.7064 49.62 89.9467 49.62 90.2126C49.62 90.6198 49.7727 90.9591 50.0781 91.2306C50.3892 91.502 50.8416 91.6378 51.4355 91.6378C52.0237 91.6378 52.5468 91.5105 53.0049 91.256C53.4631 90.9959 53.7996 90.6424 54.0145 90.1956C54.1785 89.8506 54.2605 89.3416 54.2605 88.6686V88.1086Z" fill="#002845"/>
<path d="M58.1459 92.6304V80.1935H59.673V92.6304H58.1459Z" fill="#002845"/>
<path d="M67.359 92.6304V80.1935H69.0048V92.6304H67.359Z" fill="#002845"/>
<path d="M71.7196 92.6304V83.6209H73.0939V84.9019C73.7556 83.9121 74.7114 83.4173 75.9613 83.4173C76.5043 83.4173 77.002 83.5162 77.4544 83.7142C77.9125 83.9065 78.2547 84.161 78.4809 84.4777C78.7071 84.7944 78.8655 85.1705 78.956 85.606C79.0125 85.8888 79.0408 86.3837 79.0408 87.0906V92.6304H77.5138V87.15C77.5138 86.5279 77.4544 86.0641 77.3356 85.7587C77.2169 85.4477 77.0048 85.2016 76.6994 85.0207C76.3996 84.834 76.0461 84.7407 75.6389 84.7407C74.9885 84.7407 74.4258 84.9471 73.9507 85.36C73.4813 85.7729 73.2466 86.5562 73.2466 87.7099V92.6304H71.7196Z" fill="#002845"/>
<path d="M84.7248 91.2645L84.9453 92.6134C84.5155 92.7039 84.1309 92.7491 83.7916 92.7491C83.2373 92.7491 82.8075 92.6615 82.5021 92.4861C82.1967 92.3108 81.9818 92.0818 81.8573 91.799C81.7329 91.5105 81.6707 90.9082 81.6707 89.992V84.8086H80.5509V83.6209H81.6707V81.3897L83.1893 80.4735V83.6209H84.7248V84.8086H83.1893V90.0768C83.1893 90.5123 83.2147 90.7923 83.2656 90.9167C83.3222 91.0411 83.4098 91.1401 83.5286 91.2136C83.653 91.2871 83.8283 91.3239 84.0546 91.3239C84.2242 91.3239 84.4476 91.3041 84.7248 91.2645Z" fill="#002845"/>
<path d="M92.3939 89.729L93.9718 89.9241C93.7229 90.846 93.262 91.5614 92.589 92.0704C91.9159 92.5795 91.0563 92.834 90.01 92.834C88.6922 92.834 87.6459 92.4296 86.8711 91.6208C86.1019 90.8064 85.7173 89.6668 85.7173 88.202C85.7173 86.6862 86.1076 85.5099 86.8881 84.6728C87.6685 83.8358 88.6809 83.4173 89.9251 83.4173C91.1298 83.4173 92.1139 83.8273 92.8774 84.6474C93.6409 85.4675 94.0227 86.6212 94.0227 88.1086C94.0227 88.1991 94.0199 88.3349 94.0142 88.5159H87.2953C87.3518 89.5056 87.6318 90.2635 88.1351 90.7894C88.6385 91.3154 89.2663 91.5784 90.0185 91.5784C90.5784 91.5784 91.0563 91.4314 91.4522 91.1373C91.8481 90.8432 92.162 90.3737 92.3939 89.729ZM87.3801 87.2603H92.4108C92.343 86.5024 92.1507 85.934 91.8339 85.5551C91.3476 84.9669 90.7169 84.6728 89.9421 84.6728C89.2408 84.6728 88.6498 84.9075 88.1691 85.377C87.694 85.8464 87.431 86.4742 87.3801 87.2603Z" fill="#002845"/>
<path d="M95.8636 92.6304V80.1935H97.3906V92.6304H95.8636Z" fill="#002845"/>
<path d="M99.7321 92.6304V80.1935H101.259V92.6304H99.7321Z" fill="#002845"/>
<path d="M103.643 81.9496V80.1935H105.17V81.9496H103.643ZM103.643 92.6304V83.6209H105.17V92.6304H103.643Z" fill="#002845"/>
<path d="M107.223 93.3769L108.708 93.5975C108.77 94.0556 108.942 94.3893 109.225 94.5985C109.604 94.8813 110.122 95.0227 110.778 95.0227C111.485 95.0227 112.03 94.8813 112.415 94.5985C112.8 94.3157 113.06 93.9198 113.195 93.4108C113.275 93.0998 113.311 92.4465 113.306 91.4511C112.638 92.2373 111.807 92.6304 110.812 92.6304C109.573 92.6304 108.614 92.1836 107.936 91.29C107.257 90.3964 106.918 89.3246 106.918 88.0747C106.918 87.2151 107.073 86.4233 107.384 85.6993C107.695 84.9698 108.145 84.407 108.733 84.0111C109.327 83.6152 110.023 83.4173 110.82 83.4173C111.883 83.4173 112.76 83.8471 113.45 84.7068V83.6209H114.858V91.4087C114.858 92.8113 114.714 93.8039 114.426 94.3864C114.143 94.9746 113.69 95.4384 113.068 95.7777C112.452 96.1171 111.691 96.2867 110.786 96.2867C109.712 96.2867 108.843 96.0436 108.182 95.5572C107.52 95.0764 107.2 94.3497 107.223 93.3769ZM108.487 87.9644C108.487 89.1465 108.722 90.009 109.191 90.5519C109.661 91.0948 110.249 91.3663 110.956 91.3663C111.657 91.3663 112.245 91.0977 112.72 90.5604C113.195 90.0174 113.433 89.1691 113.433 88.0153C113.433 86.9125 113.187 86.0811 112.695 85.5212C112.208 84.9613 111.62 84.6813 110.93 84.6813C110.252 84.6813 109.675 84.9584 109.2 85.5127C108.725 86.0613 108.487 86.8785 108.487 87.9644Z" fill="#002845"/>
<path d="M123.342 89.729L124.92 89.9241C124.671 90.846 124.21 91.5614 123.537 92.0704C122.864 92.5795 122.004 92.834 120.958 92.834C119.64 92.834 118.594 92.4296 117.819 91.6208C117.05 90.8064 116.665 89.6668 116.665 88.202C116.665 86.6862 117.055 85.5099 117.836 84.6728C118.616 83.8358 119.629 83.4173 120.873 83.4173C122.078 83.4173 123.062 83.8273 123.825 84.6474C124.589 85.4675 124.971 86.6212 124.971 88.1086C124.971 88.1991 124.968 88.3349 124.962 88.5159H118.243C118.3 89.5056 118.58 90.2635 119.083 90.7894C119.586 91.3154 120.214 91.5784 120.966 91.5784C121.526 91.5784 122.004 91.4314 122.4 91.1373C122.796 90.8432 123.11 90.3737 123.342 89.729ZM118.328 87.2603H123.359C123.291 86.5024 123.098 85.934 122.782 85.5551C122.295 84.9669 121.665 84.6728 120.89 84.6728C120.189 84.6728 119.598 84.9075 119.117 85.377C118.642 85.8464 118.379 86.4742 118.328 87.2603Z" fill="#002845"/>
<path d="M126.845 92.6304V83.6209H128.22V84.9019C128.881 83.9121 129.837 83.4173 131.087 83.4173C131.63 83.4173 132.128 83.5162 132.58 83.7142C133.038 83.9065 133.381 84.161 133.607 84.4777C133.833 84.7944 133.991 85.1705 134.082 85.606C134.138 85.8888 134.167 86.3837 134.167 87.0906V92.6304H132.64V87.15C132.64 86.5279 132.58 86.0641 132.461 85.7587C132.343 85.4477 132.131 85.2016 131.825 85.0207C131.525 84.834 131.172 84.7407 130.765 84.7407C130.114 84.7407 129.552 84.9471 129.077 85.36C128.607 85.7729 128.372 86.5562 128.372 87.7099V92.6304H126.845Z" fill="#002845"/>
<path d="M142.396 89.3303L143.897 89.5254C143.733 90.5604 143.312 91.372 142.633 91.9602C141.96 92.5427 141.132 92.834 140.148 92.834C138.915 92.834 137.922 92.4324 137.17 91.6293C136.423 90.8205 136.05 89.664 136.05 88.1595C136.05 87.1868 136.211 86.3356 136.534 85.606C136.856 84.8764 137.345 84.3307 138.001 83.9687C138.663 83.6011 139.381 83.4173 140.156 83.4173C141.134 83.4173 141.935 83.6661 142.557 84.1638C143.179 84.6559 143.578 85.3572 143.753 86.2677L142.268 86.4968C142.127 85.8916 141.875 85.4363 141.513 85.1309C141.157 84.8255 140.724 84.6728 140.215 84.6728C139.446 84.6728 138.821 84.95 138.341 85.5042C137.86 86.0528 137.619 86.9238 137.619 88.1171C137.619 89.3274 137.851 90.2069 138.315 90.7555C138.779 91.3041 139.384 91.5784 140.131 91.5784C140.73 91.5784 141.231 91.3946 141.632 91.027C142.034 90.6594 142.288 90.0938 142.396 89.3303Z" fill="#002845"/>
<path d="M151.371 89.729L152.949 89.9241C152.7 90.846 152.239 91.5614 151.566 92.0704C150.893 92.5795 150.034 92.834 148.987 92.834C147.67 92.834 146.623 92.4296 145.848 91.6208C145.079 90.8064 144.695 89.6668 144.695 88.202C144.695 86.6862 145.085 85.5099 145.865 84.6728C146.646 83.8358 147.658 83.4173 148.902 83.4173C150.107 83.4173 151.091 83.8273 151.855 84.6474C152.618 85.4675 153 86.6212 153 88.1086C153 88.1991 152.997 88.3349 152.992 88.5159H146.273C146.329 89.5056 146.609 90.2635 147.112 90.7894C147.616 91.3154 148.244 91.5784 148.996 91.5784C149.556 91.5784 150.034 91.4314 150.43 91.1373C150.825 90.8432 151.139 90.3737 151.371 89.729ZM146.357 87.2603H151.388C151.32 86.5024 151.128 85.934 150.811 85.5551C150.325 84.9669 149.694 84.6728 148.919 84.6728C148.218 84.6728 147.627 84.9075 147.146 85.377C146.671 85.8464 146.408 86.4742 146.357 87.2603Z" fill="#002845"/>
</svg>
