<svg width="310" height="196" viewBox="0 0 310 196" fill="none" xmlns="http://www.w3.org/2000/svg">
<path d="M17.7275 63.5884L29.136 62.5909C29.6763 67.1626 30.9232 70.9239 32.8765 73.8747C34.8715 76.784 37.947 79.153 42.1031 80.9816C46.2592 82.7688 50.9348 83.6623 56.1299 83.6623C60.7432 83.6623 64.8162 82.9766 68.3489 81.6051C71.8816 80.2335 74.4999 78.3633 76.2039 75.9943C77.9495 73.5838 78.8222 70.9654 78.8222 68.1393C78.8222 65.2716 77.991 62.7779 76.3286 60.6583C74.6661 58.4971 71.9231 56.6892 68.0995 55.2346C65.6474 54.2787 60.2237 52.8033 51.8284 50.8083C43.433 48.7719 37.5521 46.8601 34.1857 45.0729C29.8218 42.7871 26.5593 39.9609 24.3981 36.5945C22.2785 33.1865 21.2187 29.3836 21.2187 25.186C21.2187 20.5727 22.5278 16.2711 25.1462 12.2813C27.7645 8.24986 31.5881 5.19513 36.617 3.11708C41.6459 1.03903 47.2359 0 53.3869 0C60.1613 0 66.1254 1.10137 71.2789 3.3041C76.474 5.46527 80.4639 8.66547 83.2485 12.9047C86.0331 17.1439 87.5293 21.9442 87.7371 27.3056L76.1416 28.1784C75.5181 22.4014 73.3985 18.0375 69.7827 15.0866C66.2085 12.1358 60.9094 10.6604 53.8856 10.6604C46.5709 10.6604 41.2303 12.0111 37.8639 14.7126C34.539 17.3725 32.8765 20.5935 32.8765 24.3755C32.8765 27.6589 34.061 30.3603 36.43 32.4799C38.7574 34.5996 44.8253 36.7815 54.6337 39.0258C64.4837 41.2285 71.2374 43.1611 74.8947 44.8236C80.2145 47.2757 84.1421 50.3927 86.6773 54.1748C89.2125 57.9153 90.4801 62.2376 90.4801 67.1418C90.4801 72.0045 89.0878 76.597 86.3032 80.9193C83.5186 85.2001 79.508 88.5458 74.2713 90.9563C69.0762 93.3253 63.2161 94.5098 56.691 94.5098C48.4204 94.5098 41.4797 93.3045 35.8689 90.8939C30.2997 88.4834 25.9151 84.8676 22.7149 80.0465C19.5562 75.1839 17.8938 69.6978 17.7275 63.5884Z" fill="#8C7961"/>
<path d="M106.502 92.9512V1.55854H118.596V46.8808L163.981 1.55854H180.377L142.037 38.5894L182.06 92.9512H166.1L133.558 46.6938L118.596 61.2817V92.9512H106.502Z" fill="#8C7961"/>
<path d="M182.122 92.9512L217.22 1.55854H230.25L267.655 92.9512H253.877L243.217 65.2716H205.002L194.965 92.9512H182.122ZM208.493 55.4216H239.476L229.938 30.111C227.029 22.4222 224.868 16.1049 223.455 11.1591C222.291 17.0192 220.649 22.8378 218.53 28.6148L208.493 55.4216Z" fill="white"/>
<path d="M279.375 92.9512V1.55854H291.469V92.9512H279.375Z" fill="white"/>
<path d="M32.0083 133.997L35.1457 133.723C35.2943 134.98 35.6372 136.014 36.1743 136.826C36.723 137.626 37.5687 138.277 38.7117 138.78C39.8546 139.272 41.1405 139.517 42.5691 139.517C43.8378 139.517 44.9579 139.329 45.9294 138.952C46.9009 138.574 47.621 138.06 48.0896 137.409C48.5696 136.746 48.8096 136.026 48.8096 135.248C48.8096 134.46 48.5811 133.774 48.1239 133.191C47.6667 132.597 46.9123 132.1 45.8608 131.7C45.1865 131.437 43.6949 131.031 41.3862 130.482C39.0774 129.922 37.4602 129.397 36.5344 128.905C35.3343 128.276 34.4371 127.499 33.8427 126.573C33.2598 125.636 32.9684 124.59 32.9684 123.436C32.9684 122.167 33.3284 120.984 34.0485 119.887C34.7685 118.779 35.82 117.938 37.203 117.367C38.586 116.796 40.1232 116.51 41.8148 116.51C43.6778 116.51 45.3179 116.813 46.7352 117.418C48.1639 118.013 49.2611 118.893 50.0269 120.059C50.7927 121.224 51.2041 122.545 51.2613 124.019L48.0724 124.259C47.901 122.67 47.3181 121.47 46.3237 120.659C45.3408 119.847 43.8835 119.441 41.952 119.441C39.9404 119.441 38.4717 119.813 37.5459 120.556C36.6315 121.287 36.1743 122.173 36.1743 123.213C36.1743 124.116 36.5001 124.859 37.1516 125.442C37.7916 126.025 39.4603 126.625 42.1577 127.242C44.8665 127.848 46.7238 128.379 47.7296 128.836C49.1925 129.511 50.2726 130.368 50.9698 131.408C51.667 132.437 52.0156 133.625 52.0156 134.974C52.0156 136.311 51.6327 137.574 50.867 138.763C50.1012 139.94 48.9982 140.86 47.5581 141.523C46.1294 142.175 44.5179 142.5 42.7234 142.5C40.449 142.5 38.5402 142.169 36.9973 141.506C35.4657 140.843 34.2599 139.849 33.3798 138.523C32.5112 137.186 32.054 135.677 32.0083 133.997Z" fill="white"/>
<path d="M68.0455 139.826C66.9025 140.797 65.7996 141.483 64.7366 141.883C63.6851 142.283 62.5536 142.483 61.3421 142.483C59.3419 142.483 57.8047 141.998 56.7303 141.026C55.6559 140.043 55.1187 138.792 55.1187 137.271C55.1187 136.38 55.3187 135.568 55.7188 134.837C56.1302 134.094 56.6617 133.5 57.3132 133.054C57.9761 132.608 58.719 132.271 59.5419 132.042C60.1477 131.882 61.0621 131.728 62.285 131.58C64.7766 131.282 66.6111 130.928 67.7883 130.517C67.7997 130.094 67.8055 129.825 67.8055 129.711C67.8055 128.454 67.514 127.568 66.9311 127.053C66.1425 126.356 64.9709 126.008 63.4165 126.008C61.965 126.008 60.8906 126.265 60.1934 126.779C59.5076 127.282 58.999 128.179 58.6676 129.471L55.6502 129.059C55.9245 127.768 56.376 126.728 57.0046 125.939C57.6332 125.139 58.5419 124.528 59.7305 124.105C60.9192 123.67 62.2964 123.453 63.8623 123.453C65.4167 123.453 66.6796 123.636 67.6512 124.002C68.6227 124.368 69.337 124.83 69.7942 125.39C70.2514 125.939 70.5714 126.636 70.7543 127.482C70.8571 128.008 70.9086 128.956 70.9086 130.328V134.443C70.9086 137.311 70.9714 139.129 71.0972 139.895C71.2343 140.649 71.4972 141.375 71.8858 142.072H68.6627C68.3426 141.432 68.1369 140.683 68.0455 139.826ZM67.7883 132.934C66.6682 133.391 64.9881 133.78 62.7479 134.1C61.4792 134.283 60.582 134.488 60.0563 134.717C59.5305 134.946 59.1248 135.283 58.839 135.728C58.5533 136.163 58.4104 136.649 58.4104 137.186C58.4104 138.009 58.719 138.694 59.3362 139.243C59.9648 139.792 60.8792 140.066 62.0793 140.066C63.268 140.066 64.3252 139.809 65.251 139.294C66.1768 138.769 66.8568 138.054 67.2911 137.151C67.6226 136.454 67.7883 135.426 67.7883 134.065V132.934Z" fill="white"/>
<path d="M75.709 142.072V123.865H78.4692V126.419C79.0406 125.528 79.8007 124.813 80.7494 124.276C81.698 123.727 82.7781 123.453 83.9896 123.453C85.3383 123.453 86.4412 123.733 87.2985 124.293C88.1671 124.853 88.7786 125.636 89.1329 126.642C90.573 124.516 92.4474 123.453 94.7562 123.453C96.5621 123.453 97.9507 123.956 98.9222 124.962C99.8938 125.956 100.38 127.494 100.38 129.574V142.072H97.3107V130.602C97.3107 129.368 97.2078 128.482 97.0021 127.945C96.8078 127.396 96.4478 126.956 95.922 126.625C95.3963 126.293 94.7791 126.128 94.0704 126.128C92.7903 126.128 91.7274 126.556 90.8816 127.413C90.0358 128.259 89.6129 129.619 89.6129 131.494V142.072H86.527V130.242C86.527 128.871 86.2755 127.842 85.7726 127.156C85.2697 126.471 84.4468 126.128 83.3038 126.128C82.4352 126.128 81.6294 126.356 80.8865 126.813C80.155 127.271 79.6236 127.939 79.2921 128.819C78.9606 129.699 78.7949 130.968 78.7949 132.625V142.072H75.709Z" fill="white"/>
<path d="M104.923 142.072V123.865H107.7V126.625C108.409 125.333 109.06 124.482 109.655 124.07C110.26 123.659 110.923 123.453 111.643 123.453C112.683 123.453 113.741 123.785 114.815 124.448L113.752 127.311C112.998 126.865 112.243 126.642 111.489 126.642C110.815 126.642 110.209 126.848 109.672 127.259C109.134 127.659 108.752 128.219 108.523 128.939C108.18 130.037 108.009 131.237 108.009 132.54V142.072H104.923Z" fill="white"/>
<path d="M128.582 142.072V139.397C127.165 141.455 125.239 142.483 122.804 142.483C121.73 142.483 120.724 142.278 119.787 141.866C118.861 141.455 118.17 140.94 117.712 140.323C117.267 139.694 116.952 138.929 116.769 138.026C116.644 137.42 116.581 136.46 116.581 135.146V123.865H119.667V133.963C119.667 135.574 119.73 136.66 119.855 137.22C120.05 138.031 120.461 138.672 121.09 139.14C121.718 139.597 122.496 139.826 123.421 139.826C124.347 139.826 125.216 139.592 126.027 139.123C126.839 138.643 127.41 137.997 127.742 137.186C128.085 136.363 128.256 135.174 128.256 133.62V123.865H131.342V142.072H128.582Z" fill="white"/>
<path d="M136.211 142.072V116.938H139.297V131.271L146.6 123.865H150.595L143.634 130.619L151.298 142.072H147.492L141.474 132.763L139.297 134.854V142.072H136.211Z" fill="white"/>
<path d="M152.549 134.528V131.425H162.03V134.528H152.549Z" fill="white"/>
<path d="M165.699 142.072V116.938H169.025V129.402L181.506 116.938H186.015L175.471 127.122L186.478 142.072H182.089L173.14 129.351L169.025 133.363V142.072H165.699Z" fill="white"/>
<path d="M200.742 139.826C199.599 140.797 198.496 141.483 197.433 141.883C196.382 142.283 195.25 142.483 194.038 142.483C192.038 142.483 190.501 141.998 189.427 141.026C188.352 140.043 187.815 138.792 187.815 137.271C187.815 136.38 188.015 135.568 188.415 134.837C188.827 134.094 189.358 133.5 190.01 133.054C190.673 132.608 191.415 132.271 192.238 132.042C192.844 131.882 193.758 131.728 194.981 131.58C197.473 131.282 199.307 130.928 200.485 130.517C200.496 130.094 200.502 129.825 200.502 129.711C200.502 128.454 200.21 127.568 199.628 127.053C198.839 126.356 197.667 126.008 196.113 126.008C194.661 126.008 193.587 126.265 192.89 126.779C192.204 127.282 191.695 128.179 191.364 129.471L188.347 129.059C188.621 127.768 189.072 126.728 189.701 125.939C190.33 125.139 191.238 124.528 192.427 124.105C193.616 123.67 194.993 123.453 196.559 123.453C198.113 123.453 199.376 123.636 200.348 124.002C201.319 124.368 202.033 124.83 202.491 125.39C202.948 125.939 203.268 126.636 203.451 127.482C203.554 128.008 203.605 128.956 203.605 130.328V134.443C203.605 137.311 203.668 139.129 203.794 139.895C203.931 140.649 204.194 141.375 204.582 142.072H201.359C201.039 141.432 200.833 140.683 200.742 139.826ZM200.485 132.934C199.365 133.391 197.684 133.78 195.444 134.1C194.176 134.283 193.278 134.488 192.753 134.717C192.227 134.946 191.821 135.283 191.535 135.728C191.25 136.163 191.107 136.649 191.107 137.186C191.107 138.009 191.415 138.694 192.033 139.243C192.661 139.792 193.576 140.066 194.776 140.066C195.964 140.066 197.022 139.809 197.947 139.294C198.873 138.769 199.553 138.054 199.988 137.151C200.319 136.454 200.485 135.426 200.485 134.065V132.934Z" fill="white"/>
<path d="M206.777 142.072V139.569L218.366 126.265C217.052 126.333 215.892 126.368 214.886 126.368H207.462V123.865H222.344V125.905L212.486 137.46L210.583 139.569C211.966 139.466 213.263 139.414 214.474 139.414H222.892V142.072H206.777Z" fill="white"/>
<path d="M225.824 149.084L225.481 146.186C226.155 146.369 226.744 146.461 227.247 146.461C227.933 146.461 228.481 146.346 228.893 146.118C229.304 145.889 229.641 145.569 229.904 145.158C230.099 144.849 230.413 144.083 230.847 142.86C230.904 142.689 230.996 142.438 231.121 142.106L224.212 123.865H227.538L231.327 134.408C231.819 135.746 232.259 137.151 232.647 138.626C233.002 137.209 233.425 135.826 233.916 134.477L237.808 123.865H240.894L233.967 142.38C233.225 144.381 232.647 145.758 232.236 146.512C231.687 147.529 231.059 148.272 230.35 148.741C229.641 149.221 228.796 149.461 227.813 149.461C227.218 149.461 226.555 149.335 225.824 149.084Z" fill="white"/>
<path d="M243.517 142.072V123.865H246.294V126.453C247.631 124.453 249.563 123.453 252.089 123.453C253.186 123.453 254.192 123.653 255.106 124.053C256.032 124.442 256.724 124.956 257.181 125.596C257.638 126.236 257.958 126.996 258.141 127.876C258.255 128.448 258.312 129.448 258.312 130.877V142.072H255.226V130.997C255.226 129.739 255.106 128.802 254.866 128.185C254.626 127.556 254.198 127.059 253.58 126.693C252.975 126.316 252.26 126.128 251.437 126.128C250.123 126.128 248.986 126.545 248.026 127.379C247.077 128.214 246.603 129.797 246.603 132.128V142.072H243.517Z" fill="white"/>
<path d="M274.942 139.826C273.799 140.797 272.696 141.483 271.633 141.883C270.582 142.283 269.45 142.483 268.239 142.483C266.239 142.483 264.701 141.998 263.627 141.026C262.553 140.043 262.015 138.792 262.015 137.271C262.015 136.38 262.215 135.568 262.615 134.837C263.027 134.094 263.558 133.5 264.21 133.054C264.873 132.608 265.616 132.271 266.439 132.042C267.044 131.882 267.959 131.728 269.182 131.58C271.673 131.282 273.508 130.928 274.685 130.517C274.696 130.094 274.702 129.825 274.702 129.711C274.702 128.454 274.411 127.568 273.828 127.053C273.039 126.356 271.868 126.008 270.313 126.008C268.862 126.008 267.787 126.265 267.09 126.779C266.404 127.282 265.896 128.179 265.564 129.471L262.547 129.059C262.821 127.768 263.273 126.728 263.901 125.939C264.53 125.139 265.439 124.528 266.627 124.105C267.816 123.67 269.193 123.453 270.759 123.453C272.313 123.453 273.576 123.636 274.548 124.002C275.519 124.368 276.234 124.83 276.691 125.39C277.148 125.939 277.468 126.636 277.651 127.482C277.754 128.008 277.805 128.956 277.805 130.328V134.443C277.805 137.311 277.868 139.129 277.994 139.895C278.131 140.649 278.394 141.375 278.782 142.072H275.559C275.239 141.432 275.034 140.683 274.942 139.826ZM274.685 132.934C273.565 133.391 271.885 133.78 269.645 134.1C268.376 134.283 267.479 134.488 266.953 134.717C266.427 134.946 266.021 135.283 265.736 135.728C265.45 136.163 265.307 136.649 265.307 137.186C265.307 138.009 265.616 138.694 266.233 139.243C266.861 139.792 267.776 140.066 268.976 140.066C270.165 140.066 271.222 139.809 272.148 139.294C273.073 138.769 273.753 138.054 274.188 137.151C274.519 136.454 274.685 135.426 274.685 134.065V132.934Z" fill="white"/>
<path d="M0 187.674L9.65221 162.541H13.2354L23.5219 187.674H19.733L16.8014 180.062H6.29194L3.53171 187.674H0ZM7.25201 177.353H15.7727L13.1496 170.393C12.3496 168.278 11.7552 166.541 11.3666 165.181C11.0466 166.792 10.5951 168.393 10.0122 169.981L7.25201 177.353Z" fill="white"/>
<path d="M25.7506 187.674V169.467H28.528V172.227C29.2366 170.936 29.8881 170.084 30.4825 169.673C31.0882 169.261 31.7511 169.055 32.4712 169.055C33.5113 169.055 34.5685 169.387 35.6429 170.05L34.5799 172.913C33.8256 172.467 33.0712 172.244 32.3169 172.244C31.6425 172.244 31.0368 172.45 30.4996 172.861C29.9624 173.262 29.5795 173.822 29.3509 174.542C29.0081 175.639 28.8366 176.839 28.8366 178.142V187.674H25.7506Z" fill="white"/>
<path d="M44.215 184.914L44.6607 187.64C43.7921 187.823 43.0149 187.914 42.3291 187.914C41.209 187.914 40.3404 187.737 39.7232 187.383C39.106 187.028 38.6717 186.565 38.4202 185.994C38.1688 185.411 38.0431 184.194 38.0431 182.342V171.867H35.78V169.467H38.0431V164.958L41.1119 163.106V169.467H44.215V171.867H41.1119V182.514C41.1119 183.394 41.1633 183.96 41.2662 184.211C41.3805 184.462 41.5576 184.662 41.7977 184.811C42.0491 184.96 42.4034 185.034 42.8606 185.034C43.2035 185.034 43.6549 184.994 44.215 184.914Z" fill="white"/>
<path d="M47.2667 166.09V162.541H50.3526V166.09H47.2667ZM47.2667 187.674V169.467H50.3526V187.674H47.2667Z" fill="white"/>
<path d="M55.8045 187.674V171.867H53.0786V169.467H55.8045V167.53C55.8045 166.307 55.9131 165.398 56.1302 164.804C56.4274 164.004 56.9474 163.358 57.6904 162.866C58.4447 162.363 59.4962 162.112 60.8449 162.112C61.7135 162.112 62.6736 162.215 63.7251 162.421L63.2622 165.112C62.6222 164.998 62.0164 164.941 61.4449 164.941C60.5077 164.941 59.8448 165.141 59.4562 165.541C59.0676 165.941 58.8733 166.69 58.8733 167.787V169.467H62.4222V171.867H58.8733V187.674H55.8045Z" fill="white"/>
<path d="M64.8567 166.09V162.541H67.9426V166.09H64.8567ZM64.8567 187.674V169.467H67.9426V187.674H64.8567Z" fill="white"/>
<path d="M84.5382 181.005L87.5728 181.399C87.2413 183.491 86.3898 185.131 85.0183 186.32C83.6582 187.497 81.9837 188.086 79.995 188.086C77.5034 188.086 75.4975 187.274 73.9774 185.651C72.4687 184.017 71.7143 181.679 71.7143 178.639C71.7143 176.673 72.0401 174.953 72.6916 173.479C73.343 172.004 74.3317 170.901 75.6575 170.17C76.9948 169.427 78.4463 169.055 80.0122 169.055C81.9895 169.055 83.6067 169.558 84.864 170.564C86.1212 171.559 86.927 172.976 87.2813 174.816L84.2811 175.279C83.9953 174.056 83.4867 173.136 82.7552 172.519C82.0352 171.901 81.1608 171.593 80.1322 171.593C78.5778 171.593 77.3148 172.153 76.3433 173.273C75.3718 174.382 74.886 176.142 74.886 178.553C74.886 180.999 75.3546 182.777 76.2919 183.885C77.2291 184.994 78.452 185.548 79.9607 185.548C81.1722 185.548 82.1838 185.177 82.9953 184.434C83.8067 183.691 84.3211 182.548 84.5382 181.005Z" fill="white"/>
<path d="M90.2301 166.09V162.541H93.3161V166.09H90.2301ZM90.2301 187.674V169.467H93.3161V187.674H90.2301Z" fill="white"/>
<path d="M109.912 185.428C108.769 186.4 107.666 187.085 106.603 187.486C105.551 187.886 104.42 188.086 103.208 188.086C101.208 188.086 99.6709 187.6 98.5965 186.628C97.5221 185.645 96.985 184.394 96.985 182.874C96.985 181.982 97.185 181.171 97.585 180.439C97.9965 179.696 98.5279 179.102 99.1794 178.656C99.8423 178.21 100.585 177.873 101.408 177.645C102.014 177.485 102.928 177.33 104.151 177.182C106.643 176.885 108.477 176.53 109.655 176.119C109.666 175.696 109.672 175.427 109.672 175.313C109.672 174.056 109.38 173.17 108.797 172.656C108.009 171.959 106.837 171.61 105.283 171.61C103.831 171.61 102.757 171.867 102.06 172.381C101.374 172.884 100.865 173.782 100.534 175.073L97.5164 174.662C97.7907 173.37 98.2422 172.33 98.8708 171.541C99.4994 170.741 100.408 170.13 101.597 169.707C102.785 169.273 104.163 169.055 105.729 169.055C107.283 169.055 108.546 169.238 109.517 169.604C110.489 169.97 111.203 170.433 111.66 170.993C112.118 171.541 112.438 172.239 112.62 173.084C112.723 173.61 112.775 174.559 112.775 175.93V180.045C112.775 182.914 112.838 184.731 112.963 185.497C113.101 186.251 113.363 186.977 113.752 187.674H110.529C110.209 187.034 110.003 186.285 109.912 185.428ZM109.655 178.536C108.534 178.993 106.854 179.382 104.614 179.702C103.345 179.885 102.448 180.091 101.922 180.319C101.397 180.548 100.991 180.885 100.705 181.331C100.42 181.765 100.277 182.251 100.277 182.788C100.277 183.611 100.585 184.297 101.202 184.845C101.831 185.394 102.745 185.668 103.946 185.668C105.134 185.668 106.191 185.411 107.117 184.897C108.043 184.371 108.723 183.657 109.157 182.754C109.489 182.057 109.655 181.028 109.655 179.668V178.536Z" fill="white"/>
<path d="M117.507 187.674V162.541H120.593V187.674H117.507Z" fill="white"/>
<path d="M136.125 187.674V162.541H139.451V187.674H136.125Z" fill="white"/>
<path d="M144.937 187.674V169.467H147.715V172.056C149.052 170.056 150.984 169.055 153.51 169.055C154.607 169.055 155.613 169.255 156.527 169.656C157.453 170.044 158.144 170.558 158.601 171.198C159.059 171.839 159.379 172.599 159.561 173.479C159.676 174.05 159.733 175.05 159.733 176.479V187.674H156.647V176.599C156.647 175.342 156.527 174.404 156.287 173.787C156.047 173.159 155.618 172.661 155.001 172.296C154.395 171.919 153.681 171.73 152.858 171.73C151.544 171.73 150.406 172.147 149.446 172.981C148.498 173.816 148.023 175.399 148.023 177.73V187.674H144.937Z" fill="white"/>
<path d="M171.219 184.914L171.665 187.64C170.797 187.823 170.019 187.914 169.334 187.914C168.214 187.914 167.345 187.737 166.728 187.383C166.111 187.028 165.676 186.565 165.425 185.994C165.173 185.411 165.048 184.194 165.048 182.342V171.867H162.785V169.467H165.048V164.958L168.116 163.106V169.467H171.219V171.867H168.116V182.514C168.116 183.394 168.168 183.96 168.271 184.211C168.385 184.462 168.562 184.662 168.802 184.811C169.054 184.96 169.408 185.034 169.865 185.034C170.208 185.034 170.659 184.994 171.219 184.914Z" fill="white"/>
<path d="M186.718 181.811L189.907 182.205C189.404 184.068 188.472 185.514 187.112 186.543C185.752 187.571 184.015 188.086 181.9 188.086C179.237 188.086 177.123 187.268 175.557 185.634C174.003 183.988 173.225 181.685 173.225 178.725C173.225 175.662 174.014 173.284 175.591 171.593C177.169 169.901 179.214 169.055 181.729 169.055C184.163 169.055 186.152 169.884 187.695 171.541C189.238 173.199 190.01 175.53 190.01 178.536C190.01 178.719 190.004 178.993 189.992 179.359H176.414C176.529 181.359 177.094 182.891 178.111 183.954C179.129 185.017 180.397 185.548 181.917 185.548C183.049 185.548 184.015 185.251 184.815 184.657C185.615 184.062 186.249 183.114 186.718 181.811ZM176.586 176.822H186.752C186.615 175.29 186.226 174.142 185.586 173.376C184.603 172.187 183.329 171.593 181.763 171.593C180.346 171.593 179.152 172.067 178.18 173.016C177.22 173.964 176.689 175.233 176.586 176.822Z" fill="white"/>
<path d="M193.73 187.674V162.541H196.816V187.674H193.73Z" fill="white"/>
<path d="M201.548 187.674V162.541H204.634V187.674H201.548Z" fill="white"/>
<path d="M209.451 166.09V162.541H212.537V166.09H209.451ZM209.451 187.674V169.467H212.537V187.674H209.451Z" fill="white"/>
<path d="M216.686 189.183L219.686 189.629C219.812 190.554 220.161 191.229 220.732 191.652C221.498 192.223 222.544 192.509 223.869 192.509C225.298 192.509 226.401 192.223 227.178 191.652C227.955 191.08 228.481 190.28 228.756 189.251C228.916 188.623 228.99 187.303 228.978 185.291C227.63 186.88 225.95 187.674 223.938 187.674C221.435 187.674 219.498 186.771 218.126 184.965C216.755 183.159 216.069 180.994 216.069 178.468C216.069 176.73 216.383 175.13 217.012 173.667C217.64 172.193 218.549 171.056 219.738 170.256C220.938 169.455 222.344 169.055 223.955 169.055C226.104 169.055 227.876 169.924 229.27 171.661V169.467H232.116V185.205C232.116 188.04 231.824 190.046 231.241 191.223C230.67 192.412 229.756 193.349 228.498 194.035C227.253 194.72 225.715 195.063 223.887 195.063C221.715 195.063 219.961 194.572 218.623 193.589C217.286 192.617 216.64 191.149 216.686 189.183ZM219.241 178.245C219.241 180.634 219.715 182.377 220.663 183.474C221.612 184.571 222.801 185.12 224.229 185.12C225.647 185.12 226.835 184.577 227.795 183.491C228.756 182.394 229.236 180.679 229.236 178.348C229.236 176.119 228.738 174.439 227.744 173.307C226.761 172.176 225.572 171.61 224.178 171.61C222.807 171.61 221.641 172.17 220.681 173.29C219.721 174.399 219.241 176.05 219.241 178.245Z" fill="white"/>
<path d="M249.26 181.811L252.449 182.205C251.946 184.068 251.014 185.514 249.654 186.543C248.294 187.571 246.557 188.086 244.443 188.086C241.779 188.086 239.665 187.268 238.099 185.634C236.545 183.988 235.768 181.685 235.768 178.725C235.768 175.662 236.556 173.284 238.133 171.593C239.711 169.901 241.757 169.055 244.271 169.055C246.706 169.055 248.694 169.884 250.237 171.541C251.78 173.199 252.552 175.53 252.552 178.536C252.552 178.719 252.546 178.993 252.535 179.359H238.956C239.071 181.359 239.636 182.891 240.654 183.954C241.671 185.017 242.94 185.548 244.46 185.548C245.591 185.548 246.557 185.251 247.357 184.657C248.157 184.062 248.791 183.114 249.26 181.811ZM239.128 176.822H249.294C249.157 175.29 248.769 174.142 248.129 173.376C247.146 172.187 245.871 171.593 244.305 171.593C242.888 171.593 241.694 172.067 240.722 173.016C239.762 173.964 239.231 175.233 239.128 176.822Z" fill="white"/>
<path d="M256.341 187.674V169.467H259.118V172.056C260.455 170.056 262.387 169.055 264.913 169.055C266.01 169.055 267.016 169.255 267.93 169.656C268.856 170.044 269.547 170.558 270.005 171.198C270.462 171.839 270.782 172.599 270.965 173.479C271.079 174.05 271.136 175.05 271.136 176.479V187.674H268.05V176.599C268.05 175.342 267.93 174.404 267.69 173.787C267.45 173.159 267.021 172.661 266.404 172.296C265.799 171.919 265.084 171.73 264.261 171.73C262.947 171.73 261.81 172.147 260.85 172.981C259.901 173.816 259.427 175.399 259.427 177.73V187.674H256.341Z" fill="white"/>
<path d="M287.766 181.005L290.801 181.399C290.469 183.491 289.618 185.131 288.246 186.32C286.886 187.497 285.212 188.086 283.223 188.086C280.731 188.086 278.725 187.274 277.205 185.651C275.696 184.017 274.942 181.679 274.942 178.639C274.942 176.673 275.268 174.953 275.919 173.479C276.571 172.004 277.56 170.901 278.885 170.17C280.223 169.427 281.674 169.055 283.24 169.055C285.217 169.055 286.835 169.558 288.092 170.564C289.349 171.559 290.155 172.976 290.509 174.816L287.509 175.279C287.223 174.056 286.715 173.136 285.983 172.519C285.263 171.901 284.389 171.593 283.36 171.593C281.806 171.593 280.543 172.153 279.571 173.273C278.6 174.382 278.114 176.142 278.114 178.553C278.114 180.999 278.582 182.777 279.52 183.885C280.457 184.994 281.68 185.548 283.189 185.548C284.4 185.548 285.412 185.177 286.223 184.434C287.035 183.691 287.549 182.548 287.766 181.005Z" fill="white"/>
<path d="M305.905 181.811L309.093 182.205C308.591 184.068 307.659 185.514 306.299 186.543C304.939 187.571 303.202 188.086 301.087 188.086C298.424 188.086 296.31 187.268 294.744 185.634C293.189 183.988 292.412 181.685 292.412 178.725C292.412 175.662 293.201 173.284 294.778 171.593C296.355 169.901 298.401 169.055 300.916 169.055C303.35 169.055 305.339 169.884 306.882 171.541C308.425 173.199 309.196 175.53 309.196 178.536C309.196 178.719 309.191 178.993 309.179 179.359H295.601C295.715 181.359 296.281 182.891 297.298 183.954C298.315 185.017 299.584 185.548 301.104 185.548C302.236 185.548 303.202 185.251 304.002 184.657C304.802 184.062 305.436 183.114 305.905 181.811ZM295.772 176.822H305.939C305.802 175.29 305.413 174.142 304.773 173.376C303.79 172.187 302.516 171.593 300.95 171.593C299.533 171.593 298.338 172.067 297.367 173.016C296.407 173.964 295.875 175.233 295.772 176.822Z" fill="white"/>
</svg>
